<svg xmlns="http://www.w3.org/2000/svg" xmlns:xlink="http://www.w3.org/1999/xlink" viewBox="0 0 1080 1920"><defs><path id="a" d="M0 0h1080v1920H0z"/></defs><clipPath id="b"><use xlink:href="#a" overflow="visible"/></clipPath><path opacity=".4" clip-path="url(#b)" fill="#FCB73B" d="M368.8 1153.4l-.5-.5.1-.1L1082 437.1l.5.5-.1.1-713.6 715.7zm0-.4l713.3-715.3L368.8 1153z"/><defs><path id="c" d="M-361.6 2216.177l-762.587-764.748L235.365 95.716l762.588 764.748z"/></defs><clipPath id="d"><use xlink:href="#c" overflow="visible"/></clipPath><path transform="rotate(-134.918 2.345 331.353)" opacity=".4" clip-path="url(#d)" fill="#FCB73B" d="M2.2 169.3h.3v324.1h-.3z"/><defs><path id="e" d="M-290.01 2182.328l-762.587-764.748L306.955 61.868l762.588 764.748z"/></defs><clipPath id="f"><use xlink:href="#e" overflow="visible"/></clipPath><path transform="rotate(-134.918 78.945 400.745)" opacity=".4" clip-path="url(#f)" fill="#FCB73B" d="M31.9 400.6H126v.3H31.9z"/><defs><path id="g" d="M806.263 2068.062L43.675 1303.314 1403.227-52.398l762.588 764.748z"/></defs><clipPath id="h"><use xlink:href="#g" overflow="visible"/></clipPath><path transform="rotate(-134.918 764.758 1664.21)" opacity=".4" clip-path="url(#h)" fill="#FCB73B" d="M698.3 1664.1h133v.3h-133z"/><defs><path id="i" d="M0 0h1080v1920H0z"/></defs><clipPath id="j"><use xlink:href="#i" overflow="visible"/></clipPath><g opacity=".4" clip-path="url(#j)"><path fill="#FCB73B" d="M76.7 1621.7h-2.5c0-3.7 3-6.7 6.7-6.7 1.8 0 3.4.7 4.7 2 1.3 1.3 1.9 2.9 1.9 4.7H85c0-1.1-.4-2.2-1.2-3-.8-.8-1.8-1.2-3-1.2-2.2 0-4.1 1.9-4.1 4.2"/><path fill="#FCB73B" d="M80.9 1606.6c-2.3 0-4.2 1.9-4.2 4.2 0 2.3 1.9 4.2 4.2 4.2 2.3 0 4.2-1.9 4.2-4.2s-1.9-4.2-4.2-4.2m0 10.9c-3.7 0-6.7-3-6.7-6.7s3-6.7 6.7-6.7 6.7 3 6.7 6.7c-.1 3.7-3 6.7-6.7 6.7M239.3 1621.7h-2.5c0-3.7 3-6.7 6.7-6.7 1.8 0 3.4.7 4.7 2s1.9 2.9 1.9 4.7h-2.5c0-1.1-.4-2.2-1.2-3s-1.8-1.2-3-1.2c-2.2 0-4.1 1.9-4.1 4.2"/><path fill="#FCB73B" d="M243.5 1606.6c-2.3 0-4.2 1.9-4.2 4.2 0 2.3 1.9 4.2 4.2 4.2s4.2-1.9 4.2-4.2-1.9-4.2-4.2-4.2m0 10.9c-3.7 0-6.7-3-6.7-6.7s3-6.7 6.7-6.7 6.7 3 6.7 6.7-3 6.7-6.7 6.7M276.2 1621.7h-2.5c0-3.7 3-6.7 6.7-6.7 1.8 0 3.4.7 4.7 2 1.3 1.3 1.9 2.9 1.9 4.7h-2.5c0-1.1-.4-2.2-1.2-3-.8-.8-1.8-1.2-3-1.2-2.2 0-4.1 1.9-4.1 4.2"/><path fill="#FCB73B" d="M280.4 1606.6c-2.3 0-4.2 1.9-4.2 4.2 0 2.3 1.9 4.2 4.2 4.2 2.3 0 4.2-1.9 4.2-4.2-.1-2.3-1.9-4.2-4.2-4.2m0 10.9c-3.7 0-6.7-3-6.7-6.7s3-6.7 6.7-6.7 6.7 3 6.7 6.7c-.1 3.7-3.1 6.7-6.7 6.7M44.7 1621.7h-2.5c0-3.7 3-6.7 6.7-6.7 1.8 0 3.4.7 4.7 2s1.9 2.9 1.9 4.7H53c0-1.1-.4-2.2-1.2-3s-1.8-1.2-3-1.2c-2.2 0-4.1 1.9-4.1 4.2"/><path fill="#FCB73B" d="M48.9 1606.6c-2.3 0-4.2 1.9-4.2 4.2 0 2.3 1.9 4.2 4.2 4.2s4.2-1.9 4.2-4.2c0-2.3-1.9-4.2-4.2-4.2m0 10.9c-3.7 0-6.7-3-6.7-6.7s3-6.7 6.7-6.7 6.7 3 6.7 6.7-3 6.7-6.7 6.7M105.4 1662.5h-2.5c0-3.7 3-6.7 6.7-6.7 1.8 0 3.4.7 4.7 2 1.3 1.3 1.9 2.9 1.9 4.7h-2.5c0-1.1-.4-2.2-1.2-3-.8-.8-1.8-1.2-3-1.2-2.3.1-4.1 1.9-4.1 4.2"/><path fill="#FCB73B" d="M109.6 1647.5c-2.3 0-4.2 1.9-4.2 4.2 0 2.3 1.9 4.2 4.2 4.2 2.3 0 4.2-1.9 4.2-4.2-.1-2.3-1.9-4.2-4.2-4.2m0 10.9c-3.7 0-6.7-3-6.7-6.7s3-6.7 6.7-6.7 6.7 3 6.7 6.7c-.1 3.7-3.1 6.7-6.7 6.7M139.2 1621.7h-2.5c0-3.7 3-6.7 6.7-6.7 1.8 0 3.4.7 4.7 2s1.9 2.9 1.9 4.7h-2.5c0-1.1-.4-2.2-1.2-3s-1.8-1.2-3-1.2c-2.3 0-4.1 1.9-4.1 4.2"/><path fill="#FCB73B" d="M143.4 1606.6c-2.3 0-4.2 1.9-4.2 4.2 0 2.3 1.9 4.2 4.2 4.2s4.2-1.9 4.2-4.2c-.1-2.3-1.9-4.2-4.2-4.2m0 10.9c-3.7 0-6.7-3-6.7-6.7s3-6.7 6.7-6.7 6.7 3 6.7 6.7c-.1 3.7-3.1 6.7-6.7 6.7M172.1 1621.7h-2.5c0-3.7 3-6.7 6.7-6.7 1.8 0 3.4.7 4.7 2s1.9 2.9 1.9 4.7h-2.5c0-1.1-.4-2.2-1.2-3s-1.8-1.2-3-1.2c-2.2 0-4.1 1.9-4.1 4.2"/><path fill="#FCB73B" d="M176.3 1606.6c-2.3 0-4.2 1.9-4.2 4.2 0 2.3 1.9 4.2 4.2 4.2s4.2-1.9 4.2-4.2-1.9-4.2-4.2-4.2m0 10.9c-3.7 0-6.7-3-6.7-6.7s3-6.7 6.7-6.7 6.7 3 6.7 6.7-3 6.7-6.7 6.7M172.1 1662.5h-2.5c0-3.7 3-6.7 6.7-6.7 1.8 0 3.4.7 4.7 2s1.9 2.9 1.9 4.7h-2.5c0-1.1-.4-2.2-1.2-3s-1.8-1.2-3-1.2c-2.2.1-4.1 1.9-4.1 4.2"/><path fill="#FCB73B" d="M176.3 1647.5c-2.3 0-4.2 1.9-4.2 4.2 0 2.3 1.9 4.2 4.2 4.2s4.2-1.9 4.2-4.2-1.9-4.2-4.2-4.2m0 10.9c-3.7 0-6.7-3-6.7-6.7s3-6.7 6.7-6.7 6.7 3 6.7 6.7-3 6.7-6.7 6.7M201.4 1621.7h-2.5c0-3.7 3-6.7 6.7-6.7 1.8 0 3.4.7 4.7 2s1.9 2.9 1.9 4.7h-2.5c0-1.1-.4-2.2-1.2-3s-1.8-1.2-3-1.2c-2.2 0-4.1 1.9-4.1 4.2"/><path fill="#FCB73B" d="M205.6 1606.6c-2.3 0-4.2 1.9-4.2 4.2 0 2.3 1.9 4.2 4.2 4.2s4.2-1.9 4.2-4.2-1.9-4.2-4.2-4.2m0 10.9c-3.7 0-6.7-3-6.7-6.7s3-6.7 6.7-6.7 6.7 3 6.7 6.7-3 6.7-6.7 6.7M172.1 1574.5h-2.5c0-3.7 3-6.7 6.7-6.7 1.8 0 3.4.7 4.7 2s1.9 2.9 1.9 4.7h-2.5c0-1.1-.4-2.2-1.2-3s-1.8-1.2-3-1.2c-2.2 0-4.1 1.9-4.1 4.2"/><path fill="#FCB73B" d="M176.3 1559.5c-2.3 0-4.2 1.9-4.2 4.2 0 2.3 1.9 4.2 4.2 4.2s4.2-1.9 4.2-4.2-1.9-4.2-4.2-4.2m0 10.9c-3.7 0-6.7-3-6.7-6.7s3-6.7 6.7-6.7 6.7 3 6.7 6.7-3 6.7-6.7 6.7M108.1 1574.5h-2.5c0-3.7 3-6.7 6.7-6.7 1.8 0 3.4.7 4.7 2 1.3 1.3 1.9 2.9 1.9 4.7h-2.5c0-1.1-.4-2.2-1.2-3-.8-.8-1.8-1.2-3-1.2-2.2 0-4.1 1.9-4.1 4.2"/><path fill="#FCB73B" d="M112.3 1559.5c-2.3 0-4.2 1.9-4.2 4.2 0 2.3 1.9 4.2 4.2 4.2 2.3 0 4.2-1.9 4.2-4.2s-1.9-4.2-4.2-4.2m0 10.9c-3.7 0-6.7-3-6.7-6.7s3-6.7 6.7-6.7 6.7 3 6.7 6.7c-.1 3.7-3 6.7-6.7 6.7"/><path fill="none" stroke="#FCB73B" stroke-miterlimit="10" d="M123.4 1565.8h41.8M59.9 1612.9h9.9M217.4 1612.9h15M254.3 1612.9h15M92.3 1612.9h40M120.9 1653.9h44.3M153.3 1612.9h11.9M185.8 1612.9h10M176.3 1627v14.4M176.3 1581.3v16.9M118.9 1645l16.1-17.4M187.7 1645l16.1-17.4M89.5 1601l16-19.6"/></g><defs><path id="k" d="M0 0h1080v1920H0z"/></defs><clipPath id="l"><use xlink:href="#k" overflow="visible"/></clipPath><g opacity=".4" clip-path="url(#l)"><path fill="#FCB73B" d="M206.2 1786.8h-2.5v-4.4h-9.1v4.4h-2.5v-6.9h14.1M206.2 1777.6h-14.1v-7.3h2.5v4.8h9.1v-4.8h2.5M279.4 1846h-2.5v-4.4h-9.1v4.4h-2.5v-6.9h14.1M279.4 1836.8h-14.1v-7.3h2.5v4.8h9.1v-4.8h2.5M394 1786.8h-2.5v-4.4h-9.1v4.4h-2.5v-6.9H394M394 1777.6h-14.1v-7.3h2.5v4.8h9.1v-4.8h2.5M181.7 1786.8h-2.5v-4.4h-9.1v4.4h-2.5v-6.9h14.1M181.7 1777.6h-14.1v-7.3h2.5v4.8h9.1v-4.8h2.5M181.7 1845.8h-2.5v-4.4h-9.1v4.4h-2.5v-6.9h14.1M181.7 1836.6h-14.1v-7.3h2.5v4.8h9.1v-4.8h2.5M229.9 1786.8h-2.5v-4.4h-9v4.4h-2.5v-6.9h14M229.9 1777.6h-14v-7.3h2.5v4.8h9v-4.8h2.5M339.7 1786.8h-2.5v-4.4h-9.1v4.4h-2.5v-6.9h14.1M339.7 1777.6h-14.1v-7.3h2.5v4.8h9.1v-4.8h2.5M303.6 1846h-2.5v-4.4H292v4.4h-2.5v-6.9h14.1M303.6 1836.8h-14.1v-7.3h2.5v4.8h9.1v-4.8h2.5M303.6 1868.5h-2.5v-4.4H292v4.4h-2.5v-6.9h14.1M303.6 1859.3h-14.1v-7.2h2.5v4.7h9.1v-4.7h2.5M413.3 1786.8h-2.5v-4.4h-9v4.4h-2.5v-6.9h14M413.3 1777.6h-14v-7.3h2.5v4.8h9v-4.8h2.5M413.3 1764.9h-2.5v-4.4h-9v4.4h-2.5v-6.9h14M413.3 1755.7h-14v-7.3h2.5v4.8h9v-4.8h2.5M206.2 1741.9h-2.5v-4.4h-9.1v4.4h-2.5v-6.9h14.1M206.2 1732.7h-14.1v-7.3h2.5v4.8h9.1v-4.8h2.5M255.2 1741.9h-2.5v-4.4h-9.1v4.4h-2.5v-6.9h14.1M255.2 1732.7h-14.1v-7.3h2.5v4.8h9.1v-4.8h2.5M279.4 1764.5h-2.5v-4.4h-9.1v4.4h-2.5v-6.9h14.1M279.4 1755.3h-14.1v-7.3h2.5v4.8h9.1v-4.8h2.5M303.6 1741.9h-2.5v-4.4H292v4.4h-2.5v-6.9h14.1M303.6 1732.7h-14.1v-7.3h2.5v4.8h9.1v-4.8h2.5M303.6 1764.5h-2.5v-4.4H292v4.4h-2.5v-6.9h14.1M303.6 1755.3h-14.1v-7.3h2.5v4.8h9.1v-4.8h2.5M229.9 1809.4h-2.5v-4.4h-9v4.4h-2.5v-6.9h14M229.9 1800.2h-14v-7.3h2.5v4.8h9v-4.8h2.5M339.7 1809.4h-2.5v-4.4h-9.1v4.4h-2.5v-6.9h14.1M339.7 1800.2h-14.1v-7.3h2.5v4.8h9.1v-4.8h2.5M303.6 1891.1h-2.5v-4.4H292v4.4h-2.5v-6.9h14.1M303.6 1881.9h-14.1v-7.3h2.5v4.8h9.1v-4.8h2.5M413.3 1891.1h-2.5v-4.4h-9v4.4h-2.5v-6.9h14M413.3 1881.9h-14v-7.3h2.5v4.8h9v-4.8h2.5M413.3 1809.4h-2.5v-4.4h-9v4.4h-2.5v-6.9h14M413.3 1800.2h-14v-7.3h2.5v4.8h9v-4.8h2.5M206.2 1809.2h-2.5v-4.4h-9.1v4.4h-2.5v-6.9h14.1M206.2 1800h-14.1v-7.3h2.5v4.8h9.1v-4.8h2.5"/><path fill="none" stroke="#FCB73B" stroke-width=".294" stroke-miterlimit="10" d="M261 1733.7h20.8M212.5 1733.7h20.8M237.6 1778.8h77.9M237.6 1801.1h77.9M309.3 1883h79.8M350 1801.1h42.3M350 1779.1h21.8M310.8 1756.5H387M406.3 1815.9v52.6M189 1837.8h66.2M174.6 1792.7v31.2M199.3 1745.7v19.7"/></g><defs><path id="m" d="M0 0h1080v1920H0z"/></defs><clipPath id="n"><use xlink:href="#m" overflow="visible"/></clipPath><g opacity=".4" clip-path="url(#n)"><path fill="#FCB73B" d="M574.1 1567.3h5.6v-5.7h2.5v8.2h-8.1M582.2 1578v-8.2h8.1v2.5h-5.6v5.7M574.1 1602.8h5.6v-5.7h2.5v8.2h-8.1M582.2 1613.5v-8.2h8.1v2.5h-5.6v5.7M574.1 1654.3h5.6v-5.7h2.5v8.2h-8.1M582.2 1665v-8.2h8.1v2.5h-5.6v5.7M644.8 1693.8h5.6v-5.6h2.5v8.1h-8.1M653 1704.5v-8.1h8v2.5h-5.6v5.6M574.1 1695.6h5.6v-5.7h2.5v8.2h-8.1M582.2 1706.2v-8.1h8.1v2.5h-5.6v5.6M617.5 1602.8h5.6v-5.7h2.5v8.2h-8.1M625.6 1613.5v-8.2h8.1v2.5h-5.6v5.7M517.9 1602.8h5.6v-5.7h2.5v8.2h-8.1M526 1613.5v-8.2h8.1v2.5h-5.6v5.7M482.9 1637.9h5.6v-5.6h2.4v8.1h-8M491 1648.6v-8.1h8.1v2.5h-5.6v5.6M482.9 1567.3h5.6v-5.7h2.4v8.2h-8M491 1578v-8.2h8.1v2.5h-5.6v5.7M482.9 1695.6h5.6v-5.7h2.4v8.2h-8M491 1706.2v-8.1h8.1v2.5h-5.6v5.6"/><path fill="none" stroke="#FCB73B" stroke-width=".235" stroke-miterlimit="10" d="M564.1 1697.8H508M569 1605.3h-29.5M610.9 1605.3h-15.6M637.7 1697.8h-40.4M582.2 1672.4v12M582.2 1619.6v22.7M582.2 1583.3v7.4M491 1583.3v40M517.9 1613.2l-20.2 20.3M588.1 1651.4l32.5-32.5M491 1657v25.1M499.1 1689.9l73.3-73.5"/><path fill="#FCB73B" d="M442.3 1637.9h5.6v-5.6h2.5v8.1h-8.1M450.4 1648.6v-8.1h8.1v2.5h-5.6v5.6"/><path fill="none" stroke="#FCB73B" stroke-width=".235" stroke-miterlimit="10" d="M462.8 1640.5h14.5"/></g><g><defs><path id="o" d="M0 0h1080v1920H0z"/></defs><clipPath id="p"><use xlink:href="#o" overflow="visible"/></clipPath><g opacity=".4" clip-path="url(#p)"><path fill="#FCB73B" d="M810 1874.9l-13.9-13.9 1.9-2 13.9 13.9"/><path fill="#FCB73B" d="M798 1874.9l-1.9-2L810 1859l1.9 2M784.1 1792.8l-13.9-14 1.9-1.9 13.9 13.9"/><path fill="#FCB73B" d="M772.1 1792.8l-1.9-2 13.9-13.9 1.9 1.9M661.4 1792.8l-13.9-14 2-1.9 13.9 13.9"/><path fill="#FCB73B" d="M649.5 1792.8l-2-2 13.9-13.9 2 1.9M825.8 1792.8l-13.9-14 2-1.9 13.9 13.9"/><path fill="#FCB73B" d="M813.9 1792.8l-2-2 13.9-13.9 2 1.9M825.8 1842.8l-13.9-13.9 2-2 13.9 13.9"/><path fill="#FCB73B" d="M813.9 1842.8l-2-2 13.9-13.9 2 2M734.8 1842.8l-13.9-13.9 2-2 13.9 13.9"/><path fill="#FCB73B" d="M722.9 1842.8l-2-2 13.9-13.9 2 2M710.4 1842.8l-13.9-13.9 1.9-2 13.9 13.9"/><path fill="#FCB73B" d="M698.4 1842.8l-1.9-2 13.9-13.9 1.9 2M689.1 1907l-13.9-14 1.9-1.9L691 1905"/><path fill="#FCB73B" d="M677.1 1907l-1.9-2 13.9-13.9 1.9 1.9M604.9 1842.8l-13.9-13.9 1.9-2 13.9 13.9"/><path fill="#FCB73B" d="M592.9 1842.8l-1.9-2 13.9-13.9 1.9 2M604.9 1907l-13.9-14 1.9-1.9 13.9 13.9"/><path fill="#FCB73B" d="M592.9 1907l-1.9-2 13.9-13.9 1.9 1.9M734.8 1874.9l-13.9-13.9 2-2 13.9 13.9"/><path fill="#FCB73B" d="M722.9 1874.9l-2-2 13.9-13.9 2 2M604.9 1874.9L591 1861l1.9-2 13.9 13.9"/><path fill="#FCB73B" d="M592.9 1874.9l-1.9-2 13.9-13.9 1.9 2M734.8 1907l-13.9-14 2-1.9 13.9 13.9"/><path fill="#FCB73B" d="M722.9 1907l-2-2 13.9-13.9 2 1.9"/><path fill="none" stroke="#FCB73B" stroke-width=".335" stroke-miterlimit="10" d="M619.5 1834.6h69.3M669.8 1784.6h96.9M741.1 1834.6h64.2M741.1 1867.1h51.3M619.5 1866.7h94.6M619.5 1899h50.3M741.3 1930l50.9-51.1M728.9 1911.7v15.9M665.8 1796.8l26.4 26.5M644.7 1796.2l-27.2 27.3M766.6 1796.2l-27.2 27.3M788.1 1784.6h22.1M819.9 1792.8v30.7M698.1 1913.3l15.9 14.4M696.5 1899h20"/></g></g><g><defs><path id="q" d="M0 0h1080v1920H0z"/></defs><clipPath id="r"><use xlink:href="#q" overflow="visible"/></clipPath><g opacity=".4" clip-path="url(#r)"><path fill="#FCB73B" d="M872.2 1593.1h-2.5c0-3.7 3-6.7 6.7-6.7 1.8 0 3.4.7 4.7 2s1.9 2.9 1.9 4.7h-2.5c0-1.1-.4-2.2-1.2-3s-1.8-1.2-3-1.2c-2.2 0-4.1 1.9-4.1 4.2"/><path fill="#FCB73B" d="M876.4 1578.1c-2.3 0-4.2 1.9-4.2 4.2 0 2.3 1.9 4.2 4.2 4.2s4.2-1.9 4.2-4.2c0-2.4-1.9-4.2-4.2-4.2m0 10.8c-3.7 0-6.7-3-6.7-6.7s3-6.7 6.7-6.7 6.7 3 6.7 6.7c-.1 3.7-3 6.7-6.7 6.7M1034.8 1593.1h-2.5c0-3.7 3-6.7 6.7-6.7 1.8 0 3.4.7 4.7 2 1.3 1.3 1.9 2.9 1.9 4.7h-2.5c0-1.1-.4-2.2-1.2-3-.8-.8-1.8-1.2-3-1.2-2.2 0-4.1 1.9-4.1 4.2"/><path fill="#FCB73B" d="M1039 1578.1c-2.3 0-4.2 1.9-4.2 4.2 0 2.3 1.9 4.2 4.2 4.2 2.3 0 4.2-1.9 4.2-4.2 0-2.4-1.9-4.2-4.2-4.2m0 10.8c-3.7 0-6.7-3-6.7-6.7s3-6.7 6.7-6.7 6.7 3 6.7 6.7-3 6.7-6.7 6.7M1071.7 1593.1h-2.5c0-3.7 3-6.7 6.7-6.7 1.8 0 3.4.7 4.7 2 1.3 1.3 1.9 2.9 1.9 4.7h-2.5c0-1.1-.4-2.2-1.2-3-.8-.8-1.8-1.2-3-1.2-2.2 0-4.1 1.9-4.1 4.2"/><path fill="#FCB73B" d="M1075.9 1578.1c-2.3 0-4.2 1.9-4.2 4.2 0 2.3 1.9 4.2 4.2 4.2 2.3 0 4.2-1.9 4.2-4.2-.1-2.4-1.9-4.2-4.2-4.2m0 10.8c-3.7 0-6.7-3-6.7-6.7s3-6.7 6.7-6.7 6.7 3 6.7 6.7c-.1 3.7-3.1 6.7-6.7 6.7M840.2 1593.1h-2.5c0-3.7 3-6.7 6.7-6.7 1.8 0 3.4.7 4.7 2s1.9 2.9 1.9 4.7h-2.5c0-1.1-.4-2.2-1.2-3s-1.8-1.2-3-1.2c-2.2 0-4.1 1.9-4.1 4.2"/><path fill="#FCB73B" d="M844.4 1578.1c-2.3 0-4.2 1.9-4.2 4.2 0 2.3 1.9 4.2 4.2 4.2s4.2-1.9 4.2-4.2c0-2.4-1.9-4.2-4.2-4.2m0 10.8c-3.7 0-6.7-3-6.7-6.7s3-6.7 6.7-6.7 6.7 3 6.7 6.7-3 6.7-6.7 6.7M900.9 1633.9h-2.5c0-3.7 3-6.7 6.7-6.7 1.8 0 3.4.7 4.7 2s1.9 2.9 1.9 4.7h-2.5c0-1.1-.4-2.2-1.2-3s-1.8-1.2-3-1.2c-2.2.1-4.1 1.9-4.1 4.2"/><path fill="#FCB73B" d="M905.1 1618.9c-2.3 0-4.2 1.9-4.2 4.2 0 2.3 1.9 4.2 4.2 4.2s4.2-1.9 4.2-4.2c-.1-2.3-1.9-4.2-4.2-4.2m0 10.9c-3.7 0-6.7-3-6.7-6.7s3-6.7 6.7-6.7 6.7 3 6.7 6.7c-.1 3.7-3.1 6.7-6.7 6.7M934.7 1593.1h-2.5c0-3.7 3-6.7 6.7-6.7 1.8 0 3.4.7 4.7 2s1.9 2.9 1.9 4.7H943c0-1.1-.4-2.2-1.2-3s-1.8-1.2-3-1.2c-2.3 0-4.1 1.9-4.1 4.2"/><path fill="#FCB73B" d="M938.9 1578.1c-2.3 0-4.2 1.9-4.2 4.2 0 2.3 1.9 4.2 4.2 4.2s4.2-1.9 4.2-4.2c-.1-2.4-1.9-4.2-4.2-4.2m0 10.8c-3.7 0-6.7-3-6.7-6.7s3-6.7 6.7-6.7 6.7 3 6.7 6.7c-.1 3.7-3.1 6.7-6.7 6.7M967.6 1593.1h-2.5c0-3.7 3-6.7 6.7-6.7 1.8 0 3.4.7 4.7 2s1.9 2.9 1.9 4.7H976c0-1.1-.4-2.2-1.2-3s-1.8-1.2-3-1.2c-2.3 0-4.2 1.9-4.2 4.2"/><path fill="#FCB73B" d="M971.8 1578.1c-2.3 0-4.2 1.9-4.2 4.2 0 2.3 1.9 4.2 4.2 4.2s4.2-1.9 4.2-4.2c0-2.4-1.9-4.2-4.2-4.2m0 10.8c-3.7 0-6.7-3-6.7-6.7s3-6.7 6.7-6.7 6.7 3 6.7 6.7-3 6.7-6.7 6.7M967.6 1633.9h-2.5c0-3.7 3-6.7 6.7-6.7 1.8 0 3.4.7 4.7 2s1.9 2.9 1.9 4.7H976c0-1.1-.4-2.2-1.2-3s-1.8-1.2-3-1.2c-2.3.1-4.2 1.9-4.2 4.2"/><path fill="#FCB73B" d="M971.8 1618.9c-2.3 0-4.2 1.9-4.2 4.2 0 2.3 1.9 4.2 4.2 4.2s4.2-1.9 4.2-4.2-1.9-4.2-4.2-4.2m0 10.9c-3.7 0-6.7-3-6.7-6.7s3-6.7 6.7-6.7 6.7 3 6.7 6.7-3 6.7-6.7 6.7M996.9 1593.1h-2.5c0-3.7 3-6.7 6.7-6.7 1.8 0 3.4.7 4.7 2s1.9 2.9 1.9 4.7h-2.5c0-1.1-.4-2.2-1.2-3s-1.8-1.2-3-1.2c-2.2 0-4 1.9-4.1 4.2"/><path fill="#FCB73B" d="M1001.1 1578.1c-2.3 0-4.2 1.9-4.2 4.2 0 2.3 1.9 4.2 4.2 4.2s4.2-1.9 4.2-4.2c0-2.4-1.9-4.2-4.2-4.2m0 10.8c-3.7 0-6.7-3-6.7-6.7s3-6.7 6.7-6.7 6.7 3 6.7 6.7-3 6.7-6.7 6.7M967.6 1545.9h-2.5c0-3.7 3-6.7 6.7-6.7 1.8 0 3.4.7 4.7 2s1.9 2.9 1.9 4.7H976c0-1.1-.4-2.2-1.2-3s-1.8-1.2-3-1.2c-2.3 0-4.2 1.9-4.2 4.2"/><path fill="#FCB73B" d="M971.8 1530.9c-2.3 0-4.2 1.9-4.2 4.2 0 2.3 1.9 4.2 4.2 4.2s4.2-1.9 4.2-4.2-1.9-4.2-4.2-4.2m0 10.9c-3.7 0-6.7-3-6.7-6.7s3-6.7 6.7-6.7 6.7 3 6.7 6.7-3 6.7-6.7 6.7M903.6 1545.9h-2.5c0-3.7 3-6.7 6.7-6.7 1.8 0 3.4.7 4.7 2s1.9 2.9 1.9 4.7H912c0-1.1-.4-2.2-1.2-3s-1.8-1.2-3-1.2c-2.3 0-4.2 1.9-4.2 4.2"/><path fill="#FCB73B" d="M907.8 1530.9c-2.3 0-4.2 1.9-4.2 4.2 0 2.3 1.9 4.2 4.2 4.2s4.2-1.9 4.2-4.2-1.9-4.2-4.2-4.2m0 10.9c-3.7 0-6.7-3-6.7-6.7s3-6.7 6.7-6.7 6.7 3 6.7 6.7c-.1 3.7-3 6.7-6.7 6.7"/><path fill="none" stroke="#FCB73B" stroke-miterlimit="10" d="M918.9 1537.2h41.8M855.4 1584.3h9.9M1012.9 1584.3h15M1049.8 1584.3h15M887.8 1584.3h40M916.4 1625.3h44.3M948.8 1584.3h11.9M981.3 1584.3h10M971.8 1598.4v14.4M971.8 1552.7v16.9M914.4 1616.5l16.1-17.5M983.2 1616.5l16.1-17.5M885 1572.4l16-19.6"/></g></g><g><defs><path id="s" d="M-263.588 1623.96l-762.588-764.747L333.376-496.5l762.588 764.75z"/></defs><clipPath id="t"><use xlink:href="#s" overflow="visible"/></clipPath><path transform="rotate(-134.918 764.757 153.21)" opacity=".4" clip-path="url(#t)" fill="#FCB73B" d="M698.3 153.1h133v.3h-133z"/></g><g><defs><path id="u" d="M0 0h1080v1920H0z"/></defs><clipPath id="v"><use xlink:href="#u" overflow="visible"/></clipPath><path opacity=".4" clip-path="url(#v)" fill="#FCB73B" d="M659.8 519.4L497 356.1l.5-.5L660.3 519l-.5.4zm-157-158l157 157.6-157-157.6z"/></g><g><defs><path id="w" d="M-32.454 1620.046l-826.632-694.98L376.37-544.424l826.632 694.98z"/></defs><clipPath id="x"><use xlink:href="#w" overflow="visible"/></clipPath><path transform="rotate(-139.945 935.026 244.14)" opacity=".4" clip-path="url(#x)" fill="#FCB73B" d="M857.4 244h155.1v.3H857.4z"/></g><g><defs><path id="y" d="M-500.2 1913.54l-762.587-764.75L96.765-206.92l762.588 764.747z"/></defs><clipPath id="z"><use xlink:href="#y" overflow="visible"/></clipPath><path transform="rotate(-134.918 297.638 13.126)" opacity=".4" clip-path="url(#z)" fill="#FCB73B" d="M212.5 13h170.3v.3H212.5z"/></g><g><defs><path id="A" d="M0 0h1080v1920H0z"/></defs><clipPath id="B"><use xlink:href="#A" overflow="visible"/></clipPath><g opacity=".4" clip-path="url(#B)"><path fill="#FCB73B" d="M76.7 110.7h-2.5c0-3.7 3-6.7 6.7-6.7 1.8 0 3.4.7 4.7 2 1.3 1.3 1.9 2.9 1.9 4.7H85c0-1.1-.4-2.2-1.2-3-.8-.8-1.8-1.2-3-1.2-2.2 0-4.1 1.9-4.1 4.2"/><path fill="#FCB73B" d="M80.9 95.7c-2.3 0-4.2 1.9-4.2 4.2 0 2.3 1.9 4.2 4.2 4.2 2.3 0 4.2-1.9 4.2-4.2s-1.9-4.2-4.2-4.2m0 10.8c-3.7 0-6.7-3-6.7-6.7s3-6.7 6.7-6.7 6.7 3 6.7 6.7-3 6.7-6.7 6.7M239.3 110.7h-2.5c0-3.7 3-6.7 6.7-6.7 1.8 0 3.4.7 4.7 2s1.9 2.9 1.9 4.7h-2.5c0-1.1-.4-2.2-1.2-3s-1.8-1.2-3-1.2c-2.2 0-4.1 1.9-4.1 4.2"/><path fill="#FCB73B" d="M243.5 95.7c-2.3 0-4.2 1.9-4.2 4.2 0 2.3 1.9 4.2 4.2 4.2s4.2-1.9 4.2-4.2-1.9-4.2-4.2-4.2m0 10.8c-3.7 0-6.7-3-6.7-6.7s3-6.7 6.7-6.7 6.7 3 6.7 6.7-3 6.7-6.7 6.7M276.2 110.7h-2.5c0-3.7 3-6.7 6.7-6.7 1.8 0 3.4.7 4.7 2 1.3 1.3 1.9 2.9 1.9 4.7h-2.5c0-1.1-.4-2.2-1.2-3-.8-.8-1.8-1.2-3-1.2-2.2 0-4.1 1.9-4.1 4.2"/><path fill="#FCB73B" d="M280.4 95.7c-2.3 0-4.2 1.9-4.2 4.2 0 2.3 1.9 4.2 4.2 4.2 2.3 0 4.2-1.9 4.2-4.2-.1-2.3-1.9-4.2-4.2-4.2m0 10.8c-3.7 0-6.7-3-6.7-6.7s3-6.7 6.7-6.7 6.7 3 6.7 6.7-3.1 6.7-6.7 6.7M44.7 110.7h-2.5c0-3.7 3-6.7 6.7-6.7 1.8 0 3.4.7 4.7 2s1.9 2.9 1.9 4.7H53c0-1.1-.4-2.2-1.2-3s-1.8-1.2-3-1.2c-2.2 0-4.1 1.9-4.1 4.2"/><path fill="#FCB73B" d="M48.9 95.7c-2.3 0-4.2 1.9-4.2 4.2 0 2.3 1.9 4.2 4.2 4.2s4.2-1.9 4.2-4.2c0-2.3-1.9-4.2-4.2-4.2m0 10.8c-3.7 0-6.7-3-6.7-6.7s3-6.7 6.7-6.7 6.7 3 6.7 6.7-3 6.7-6.7 6.7M105.4 151.6h-2.5c0-3.7 3-6.7 6.7-6.7 1.8 0 3.4.7 4.7 2 1.3 1.3 1.9 2.9 1.9 4.7h-2.5c0-1.1-.4-2.2-1.2-3-.8-.8-1.8-1.2-3-1.2-2.3 0-4.1 1.9-4.1 4.2"/><path fill="#FCB73B" d="M109.6 136.6c-2.3 0-4.2 1.9-4.2 4.2s1.9 4.2 4.2 4.2c2.3 0 4.2-1.9 4.2-4.2-.1-2.4-1.9-4.2-4.2-4.2m0 10.8c-3.7 0-6.7-3-6.7-6.7s3-6.7 6.7-6.7 6.7 3 6.7 6.7-3.1 6.7-6.7 6.7M139.2 110.7h-2.5c0-3.7 3-6.7 6.7-6.7 1.8 0 3.4.7 4.7 2s1.9 2.9 1.9 4.7h-2.5c0-1.1-.4-2.2-1.2-3s-1.8-1.2-3-1.2c-2.3 0-4.1 1.9-4.1 4.2"/><path fill="#FCB73B" d="M143.4 95.7c-2.3 0-4.2 1.9-4.2 4.2 0 2.3 1.9 4.2 4.2 4.2s4.2-1.9 4.2-4.2c-.1-2.3-1.9-4.2-4.2-4.2m0 10.8c-3.7 0-6.7-3-6.7-6.7s3-6.7 6.7-6.7 6.7 3 6.7 6.7-3.1 6.7-6.7 6.7M172.1 110.7h-2.5c0-3.7 3-6.7 6.7-6.7 1.8 0 3.4.7 4.7 2s1.9 2.9 1.9 4.7h-2.5c0-1.1-.4-2.2-1.2-3s-1.8-1.2-3-1.2c-2.2 0-4.1 1.9-4.1 4.2"/><path fill="#FCB73B" d="M176.3 95.7c-2.3 0-4.2 1.9-4.2 4.2 0 2.3 1.9 4.2 4.2 4.2s4.2-1.9 4.2-4.2-1.9-4.2-4.2-4.2m0 10.8c-3.7 0-6.7-3-6.7-6.7s3-6.7 6.7-6.7 6.7 3 6.7 6.7-3 6.7-6.7 6.7M172.1 151.6h-2.5c0-3.7 3-6.7 6.7-6.7 1.8 0 3.4.7 4.7 2s1.9 2.9 1.9 4.7h-2.5c0-1.1-.4-2.2-1.2-3s-1.8-1.2-3-1.2c-2.2 0-4.1 1.9-4.1 4.2"/><path fill="#FCB73B" d="M176.3 136.6c-2.3 0-4.2 1.9-4.2 4.2s1.9 4.2 4.2 4.2 4.2-1.9 4.2-4.2c0-2.4-1.9-4.2-4.2-4.2m0 10.8c-3.7 0-6.7-3-6.7-6.7s3-6.7 6.7-6.7 6.7 3 6.7 6.7-3 6.7-6.7 6.7M201.4 110.7h-2.5c0-3.7 3-6.7 6.7-6.7 1.8 0 3.4.7 4.7 2s1.9 2.9 1.9 4.7h-2.5c0-1.1-.4-2.2-1.2-3s-1.8-1.2-3-1.2c-2.2 0-4.1 1.9-4.1 4.2"/><path fill="#FCB73B" d="M205.6 95.7c-2.3 0-4.2 1.9-4.2 4.2 0 2.3 1.9 4.2 4.2 4.2s4.2-1.9 4.2-4.2-1.9-4.2-4.2-4.2m0 10.8c-3.7 0-6.7-3-6.7-6.7s3-6.7 6.7-6.7 6.7 3 6.7 6.7-3 6.7-6.7 6.7M172.1 63.5h-2.5c0-3.7 3-6.7 6.7-6.7 1.8 0 3.4.7 4.7 2s1.9 2.9 1.9 4.7h-2.5c0-1.1-.4-2.2-1.2-3s-1.8-1.2-3-1.2c-2.2.1-4.1 1.9-4.1 4.2"/><path fill="#FCB73B" d="M176.3 48.5c-2.3 0-4.2 1.9-4.2 4.2s1.9 4.2 4.2 4.2 4.2-1.9 4.2-4.2-1.9-4.2-4.2-4.2m0 10.9c-3.7 0-6.7-3-6.7-6.7s3-6.7 6.7-6.7 6.7 3 6.7 6.7-3 6.7-6.7 6.7M108.1 63.5h-2.5c0-3.7 3-6.7 6.7-6.7 1.8 0 3.4.7 4.7 2 1.3 1.3 1.9 2.9 1.9 4.7h-2.5c0-1.1-.4-2.2-1.2-3-.8-.8-1.8-1.2-3-1.2-2.2.1-4.1 1.9-4.1 4.2"/><path fill="#FCB73B" d="M112.3 48.5c-2.3 0-4.2 1.9-4.2 4.2s1.9 4.2 4.2 4.2c2.3 0 4.2-1.9 4.2-4.2s-1.9-4.2-4.2-4.2m0 10.9c-3.7 0-6.7-3-6.7-6.7s3-6.7 6.7-6.7 6.7 3 6.7 6.7c-.1 3.7-3 6.7-6.7 6.7"/><path fill="none" stroke="#FCB73B" stroke-miterlimit="10" d="M123.4 54.8h41.8M59.9 101.9h9.9M217.4 101.9h15M254.3 101.9h15M92.3 101.9h40M120.9 143h44.3M153.3 101.9h11.9M185.8 101.9h10M176.3 116v14.5M176.3 70.3v16.9M118.9 134.1l16.1-17.5M187.7 134.1l16.1-17.5M89.5 90.1l16-19.7"/></g></g><g><defs><path id="C" d="M0 0h1080v1920H0z"/></defs><clipPath id="D"><use xlink:href="#C" overflow="visible"/></clipPath><g opacity=".4" clip-path="url(#D)"><path fill="#FCB73B" d="M206.2 275.8h-2.5v-4.4h-9.1v4.4h-2.5v-6.9h14.1M206.2 266.6h-14.1v-7.2h2.5v4.7h9.1v-4.7h2.5M279.4 335h-2.5v-4.4h-9.1v4.4h-2.5v-6.9h14.1M279.4 325.8h-14.1v-7.2h2.5v4.7h9.1v-4.7h2.5M394 275.8h-2.5v-4.4h-9.1v4.4h-2.5v-6.9H394M394 266.6h-14.1v-7.2h2.5v4.7h9.1v-4.7h2.5M181.7 275.8h-2.5v-4.4h-9.1v4.4h-2.5v-6.9h14.1M181.7 266.6h-14.1v-7.2h2.5v4.7h9.1v-4.7h2.5M181.7 334.8h-2.5v-4.4h-9.1v4.4h-2.5v-6.9h14.1M181.7 325.6h-14.1v-7.2h2.5v4.7h9.1v-4.7h2.5M229.9 275.8h-2.5v-4.4h-9v4.4h-2.5v-6.9h14M229.9 266.6h-14v-7.2h2.5v4.7h9v-4.7h2.5M339.7 275.8h-2.5v-4.4h-9.1v4.4h-2.5v-6.9h14.1M339.7 266.6h-14.1v-7.2h2.5v4.7h9.1v-4.7h2.5M303.6 335h-2.5v-4.4H292v4.4h-2.5v-6.9h14.1M303.6 325.8h-14.1v-7.2h2.5v4.7h9.1v-4.7h2.5M303.6 357.5h-2.5v-4.3H292v4.3h-2.5v-6.8h14.1M303.6 348.4h-14.1v-7.3h2.5v4.8h9.1v-4.8h2.5M413.3 275.8h-2.5v-4.4h-9v4.4h-2.5v-6.9h14M413.3 266.6h-14v-7.2h2.5v4.7h9v-4.7h2.5M413.3 253.9h-2.5v-4.4h-9v4.4h-2.5V247h14M413.3 244.7h-14v-7.3h2.5v4.8h9v-4.8h2.5M206.2 230.9h-2.5v-4.4h-9.1v4.4h-2.5V224h14.1M206.2 221.7h-14.1v-7.2h2.5v4.7h9.1v-4.7h2.5M255.2 230.9h-2.5v-4.4h-9.1v4.4h-2.5V224h14.1M255.2 221.7h-14.1v-7.2h2.5v4.7h9.1v-4.7h2.5M279.4 253.5h-2.5v-4.4h-9.1v4.4h-2.5v-6.9h14.1M279.4 244.3h-14.1v-7.2h2.5v4.7h9.1v-4.7h2.5M303.6 230.9h-2.5v-4.4H292v4.4h-2.5V224h14.1M303.6 221.7h-14.1v-7.2h2.5v4.7h9.1v-4.7h2.5M303.6 253.5h-2.5v-4.4H292v4.4h-2.5v-6.9h14.1M303.6 244.3h-14.1v-7.2h2.5v4.7h9.1v-4.7h2.5M229.9 298.4h-2.5V294h-9v4.4h-2.5v-6.9h14M229.9 289.2h-14v-7.3h2.5v4.8h9v-4.8h2.5M339.7 298.4h-2.5V294h-9.1v4.4h-2.5v-6.9h14.1M339.7 289.2h-14.1v-7.3h2.5v4.8h9.1v-4.8h2.5M303.6 380.1h-2.5v-4.4H292v4.4h-2.5v-6.9h14.1M303.6 370.9h-14.1v-7.3h2.5v4.8h9.1v-4.8h2.5M413.3 380.1h-2.5v-4.4h-9v4.4h-2.5v-6.9h14M413.3 370.9h-14v-7.3h2.5v4.8h9v-4.8h2.5M413.3 298.4h-2.5V294h-9v4.4h-2.5v-6.9h14M413.3 289.2h-14v-7.3h2.5v4.8h9v-4.8h2.5M206.2 298.2h-2.5v-4.4h-9.1v4.4h-2.5v-6.9h14.1M206.2 289h-14.1v-7.2h2.5v4.7h9.1v-4.7h2.5"/><path fill="none" stroke="#FCB73B" stroke-width=".294" stroke-miterlimit="10" d="M261 222.7h20.8M212.5 222.7h20.8M237.6 267.8h77.9M237.6 290.2h77.9M309.3 372h79.8M350 290.2h42.3M350 268.2h21.8M310.8 245.5H387M406.3 305v52.5M189 326.8h66.2M174.6 281.8V313M199.3 234.7v19.7"/></g></g><g><defs><path id="E" d="M0 0h1080v1920H0z"/></defs><clipPath id="F"><use xlink:href="#E" overflow="visible"/></clipPath><g opacity=".4" clip-path="url(#F)"><path fill="#FCB73B" d="M574.1 56.3h5.6v-5.6h2.5v8.1h-8.1M582.2 67v-8.1h8.1v2.5h-5.6V67M574.1 91.8h5.6v-5.7h2.5v8.2h-8.1M582.2 102.5v-8.2h8.1v2.5h-5.6v5.7M574.1 143.3h5.6v-5.6h2.5v8.1h-8.1M582.2 154v-8.2h8.1v2.5h-5.6v5.7M644.8 182.9h5.6v-5.7h2.5v8.2h-8.1M653 193.5v-8.1h8v2.5h-5.6v5.6M574.1 184.6h5.6v-5.7h2.5v8.2h-8.1M582.2 195.3v-8.2h8.1v2.5h-5.6v5.7M617.5 91.8h5.6v-5.7h2.5v8.2h-8.1M625.6 102.5v-8.2h8.1v2.5h-5.6v5.7M517.9 91.8h5.6v-5.7h2.5v8.2h-8.1M526 102.5v-8.2h8.1v2.5h-5.6v5.7M482.9 127h5.6v-5.7h2.4v8.2h-8M491 137.7v-8.2h8.1v2.5h-5.6v5.7M482.9 56.3h5.6v-5.6h2.4v8.1h-8M491 67v-8.1h8.1v2.5h-5.6V67M482.9 184.6h5.6v-5.7h2.4v8.2h-8M491 195.3v-8.2h8.1v2.5h-5.6v5.7"/><path fill="none" stroke="#FCB73B" stroke-width=".235" stroke-miterlimit="10" d="M564.1 186.8H508M569 94.3h-29.5M610.9 94.3h-15.6M637.7 186.8h-40.4M582.2 161.5v11.9M582.2 108.6v22.7M582.2 72.3v7.4M491 72.3v40.1M517.9 102.2l-20.2 20.3M588.1 140.5l32.5-32.6M491 146v25.2M499.1 178.9l73.3-73.5"/><path fill="#FCB73B" d="M442.3 127h5.6v-5.7h2.5v8.2h-8.1M450.4 137.7v-8.2h8.1v2.5h-5.6v5.7"/><path fill="none" stroke="#FCB73B" stroke-width=".235" stroke-miterlimit="10" d="M462.8 129.5h14.5"/></g></g><g><defs><path id="G" d="M0 0h1080v1920H0z"/></defs><clipPath id="H"><use xlink:href="#G" overflow="visible"/></clipPath><g opacity=".4" clip-path="url(#H)"><path fill="#FCB73B" d="M810 363.9L796.1 350l1.9-2 13.9 13.9"/><path fill="#FCB73B" d="M798 363.9l-1.9-2L810 348l1.9 2M784.1 281.8l-13.9-13.9 1.9-2 13.9 13.9"/><path fill="#FCB73B" d="M772.1 281.8l-1.9-2 13.9-13.9 1.9 2M661.4 281.8l-13.9-13.9 2-2 13.9 13.9"/><path fill="#FCB73B" d="M649.5 281.8l-2-2 13.9-13.9 2 2M825.8 281.8l-13.9-13.9 2-2 13.9 13.9"/><path fill="#FCB73B" d="M813.9 281.8l-2-2 13.9-13.9 2 2M825.8 331.8l-13.9-13.9 2-2 13.9 14"/><path fill="#FCB73B" d="M813.9 331.8l-2-1.9 13.9-14 2 2M734.8 331.8l-13.9-13.9 2-2 13.9 14"/><path fill="#FCB73B" d="M722.9 331.8l-2-1.9 13.9-14 2 2M710.4 331.8l-13.9-13.9 1.9-2 13.9 14"/><path fill="#FCB73B" d="M698.4 331.8l-1.9-1.9 13.9-14 1.9 2M689.1 396l-13.9-13.9 1.9-2L691 394"/><path fill="#FCB73B" d="M677.1 396l-1.9-2 13.9-13.9 1.9 2M604.9 331.8L591 317.9l1.9-2 13.9 14"/><path fill="#FCB73B" d="M592.9 331.8l-1.9-1.9 13.9-14 1.9 2M604.9 396L591 382.1l1.9-2 13.9 13.9"/><path fill="#FCB73B" d="M592.9 396l-1.9-2 13.9-13.9 1.9 2M734.8 363.9L720.9 350l2-2 13.9 13.9"/><path fill="#FCB73B" d="M722.9 363.9l-2-2 13.9-13.9 2 2M604.9 363.9L591 350l1.9-2 13.9 13.9"/><path fill="#FCB73B" d="M592.9 363.9l-1.9-2 13.9-13.9 1.9 2M734.8 396l-13.9-13.9 2-2 13.9 13.9"/><path fill="#FCB73B" d="M722.9 396l-2-2 13.9-13.9 2 2M734.8 439l-13.9-13.9 2-2 13.9 14"/><path fill="#FCB73B" d="M722.9 439l-2-1.9 13.9-14 2 2"/><path fill="none" stroke="#FCB73B" stroke-width=".335" stroke-miterlimit="10" d="M619.5 323.7h69.3M669.8 273.6h96.9M741.1 323.7h64.2M741.1 356.2h51.3M619.5 355.7h94.6M619.5 388h50.3M741.3 419l50.9-51M728.9 400.7v15.9M665.8 285.8l26.4 26.5M644.7 285.2l-27.2 27.3M766.6 285.2l-27.2 27.3M788.1 273.6h22.1M819.9 281.8v30.7M698.1 402.4l15.9 14.4M696.5 388h20"/></g></g><g><defs><path id="I" d="M0 0h1080v1920H0z"/></defs><clipPath id="J"><use xlink:href="#I" overflow="visible"/></clipPath><g opacity=".4" clip-path="url(#J)"><path fill="#FCB73B" d="M872.2 82.1h-2.5c0-3.7 3-6.7 6.7-6.7 1.8 0 3.4.7 4.7 2s1.9 2.9 1.9 4.7h-2.5c0-1.1-.4-2.2-1.2-3s-1.8-1.2-3-1.2c-2.2 0-4.1 1.9-4.1 4.2"/><path fill="#FCB73B" d="M876.4 67.1c-2.3 0-4.2 1.9-4.2 4.2 0 2.3 1.9 4.2 4.2 4.2s4.2-1.9 4.2-4.2c0-2.3-1.9-4.2-4.2-4.2m0 10.8c-3.7 0-6.7-3-6.7-6.7s3-6.7 6.7-6.7 6.7 3 6.7 6.7-3 6.7-6.7 6.7M1034.8 82.1h-2.5c0-3.7 3-6.7 6.7-6.7 1.8 0 3.4.7 4.7 2 1.3 1.3 1.9 2.9 1.9 4.7h-2.5c0-1.1-.4-2.2-1.2-3-.8-.8-1.8-1.2-3-1.2-2.2 0-4.1 1.9-4.1 4.2"/><path fill="#FCB73B" d="M1039 67.1c-2.3 0-4.2 1.9-4.2 4.2 0 2.3 1.9 4.2 4.2 4.2 2.3 0 4.2-1.9 4.2-4.2s-1.9-4.2-4.2-4.2m0 10.8c-3.7 0-6.7-3-6.7-6.7s3-6.7 6.7-6.7 6.7 3 6.7 6.7-3 6.7-6.7 6.7M1071.7 82.1h-2.5c0-3.7 3-6.7 6.7-6.7 1.8 0 3.4.7 4.7 2 1.3 1.3 1.9 2.9 1.9 4.7h-2.5c0-1.1-.4-2.2-1.2-3-.8-.8-1.8-1.2-3-1.2-2.2 0-4.1 1.9-4.1 4.2"/><path fill="#FCB73B" d="M1075.9 67.1c-2.3 0-4.2 1.9-4.2 4.2 0 2.3 1.9 4.2 4.2 4.2 2.3 0 4.2-1.9 4.2-4.2-.1-2.3-1.9-4.2-4.2-4.2m0 10.8c-3.7 0-6.7-3-6.7-6.7s3-6.7 6.7-6.7 6.7 3 6.7 6.7-3.1 6.7-6.7 6.7M840.2 82.1h-2.5c0-3.7 3-6.7 6.7-6.7 1.8 0 3.4.7 4.7 2s1.9 2.9 1.9 4.7h-2.5c0-1.1-.4-2.2-1.2-3s-1.8-1.2-3-1.2c-2.2 0-4.1 1.9-4.1 4.2"/><path fill="#FCB73B" d="M844.4 67.1c-2.3 0-4.2 1.9-4.2 4.2 0 2.3 1.9 4.2 4.2 4.2s4.2-1.9 4.2-4.2c0-2.3-1.9-4.2-4.2-4.2m0 10.8c-3.7 0-6.7-3-6.7-6.7s3-6.7 6.7-6.7 6.7 3 6.7 6.7-3 6.7-6.7 6.7M900.9 123h-2.5c0-3.7 3-6.7 6.7-6.7 1.8 0 3.4.7 4.7 2s1.9 2.9 1.9 4.7h-2.5c0-1.1-.4-2.2-1.2-3s-1.8-1.2-3-1.2c-2.2 0-4.1 1.9-4.1 4.2"/><path fill="#FCB73B" d="M905.1 108c-2.3 0-4.2 1.9-4.2 4.2 0 2.3 1.9 4.2 4.2 4.2s4.2-1.9 4.2-4.2c-.1-2.4-1.9-4.2-4.2-4.2m0 10.8c-3.7 0-6.7-3-6.7-6.7s3-6.7 6.7-6.7 6.7 3 6.7 6.7-3.1 6.7-6.7 6.7M934.7 82.1h-2.5c0-3.7 3-6.7 6.7-6.7 1.8 0 3.4.7 4.7 2s1.9 2.9 1.9 4.7H943c0-1.1-.4-2.2-1.2-3s-1.8-1.2-3-1.2c-2.3 0-4.1 1.9-4.1 4.2"/><path fill="#FCB73B" d="M938.9 67.1c-2.3 0-4.2 1.9-4.2 4.2 0 2.3 1.9 4.2 4.2 4.2s4.2-1.9 4.2-4.2c-.1-2.3-1.9-4.2-4.2-4.2m0 10.8c-3.7 0-6.7-3-6.7-6.7s3-6.7 6.7-6.7 6.7 3 6.7 6.7-3.1 6.7-6.7 6.7M967.6 82.1h-2.5c0-3.7 3-6.7 6.7-6.7 1.8 0 3.4.7 4.7 2s1.9 2.9 1.9 4.7H976c0-1.1-.4-2.2-1.2-3s-1.8-1.2-3-1.2c-2.3 0-4.2 1.9-4.2 4.2"/><path fill="#FCB73B" d="M971.8 67.1c-2.3 0-4.2 1.9-4.2 4.2 0 2.3 1.9 4.2 4.2 4.2s4.2-1.9 4.2-4.2-1.9-4.2-4.2-4.2m0 10.8c-3.7 0-6.7-3-6.7-6.7s3-6.7 6.7-6.7 6.7 3 6.7 6.7-3 6.7-6.7 6.7M967.6 123h-2.5c0-3.7 3-6.7 6.7-6.7 1.8 0 3.4.7 4.7 2s1.9 2.9 1.9 4.7H976c0-1.1-.4-2.2-1.2-3s-1.8-1.2-3-1.2c-2.3 0-4.2 1.9-4.2 4.2"/><path fill="#FCB73B" d="M971.8 108c-2.3 0-4.2 1.9-4.2 4.2 0 2.3 1.9 4.2 4.2 4.2s4.2-1.9 4.2-4.2c0-2.4-1.9-4.2-4.2-4.2m0 10.8c-3.7 0-6.7-3-6.7-6.7s3-6.7 6.7-6.7 6.7 3 6.7 6.7-3 6.7-6.7 6.7M996.9 82.1h-2.5c0-3.7 3-6.7 6.7-6.7 1.8 0 3.4.7 4.7 2s1.9 2.9 1.9 4.7h-2.5c0-1.1-.4-2.2-1.2-3s-1.8-1.2-3-1.2c-2.2 0-4 1.9-4.1 4.2"/><path fill="#FCB73B" d="M1001.1 67.1c-2.3 0-4.2 1.9-4.2 4.2 0 2.3 1.9 4.2 4.2 4.2s4.2-1.9 4.2-4.2-1.9-4.2-4.2-4.2m0 10.8c-3.7 0-6.7-3-6.7-6.7s3-6.7 6.7-6.7 6.7 3 6.7 6.7-3 6.7-6.7 6.7M967.6 35h-2.5c0-3.7 3-6.7 6.7-6.7 1.8 0 3.4.7 4.7 2s1.9 2.9 1.9 4.7H976c0-1.1-.4-2.2-1.2-3s-1.8-1.2-3-1.2c-2.3 0-4.2 1.8-4.2 4.2"/><path fill="#FCB73B" d="M971.8 19.9c-2.3 0-4.2 1.9-4.2 4.2s1.9 4.2 4.2 4.2 4.2-1.9 4.2-4.2-1.9-4.2-4.2-4.2m0 10.9c-3.7 0-6.7-3-6.7-6.7s3-6.7 6.7-6.7 6.7 3 6.7 6.7-3 6.7-6.7 6.7M903.6 35h-2.5c0-3.7 3-6.7 6.7-6.7 1.8 0 3.4.7 4.7 2s1.9 2.9 1.9 4.7H912c0-1.1-.4-2.2-1.2-3s-1.8-1.2-3-1.2c-2.3 0-4.2 1.8-4.2 4.2"/><path fill="#FCB73B" d="M907.8 19.9c-2.3 0-4.2 1.9-4.2 4.2s1.9 4.2 4.2 4.2 4.2-1.9 4.2-4.2-1.9-4.2-4.2-4.2m0 10.9c-3.7 0-6.7-3-6.7-6.7s3-6.7 6.7-6.7 6.7 3 6.7 6.7-3 6.7-6.7 6.7"/><path fill="none" stroke="#FCB73B" stroke-miterlimit="10" d="M918.9 26.2h41.8M855.4 73.3h9.9M1012.9 73.3h15M1049.8 73.3h15M887.8 73.3h40M916.4 114.4h44.3M948.8 73.3h11.9M981.3 73.3h10M971.8 87.4v14.5M971.8 41.7v16.9M914.4 105.5L930.5 88M983.2 105.5L999.3 88M885 61.5l16-19.7"/></g></g><g><defs><path id="K" d="M0 0h1080v1920H0z"/></defs><clipPath id="L"><use xlink:href="#K" overflow="visible"/></clipPath><g opacity=".4" clip-path="url(#L)"><path fill="#FCB73B" d="M140.6 764.5h-2.5c0-3.7 3-6.7 6.7-6.7 1.8 0 3.4.7 4.7 2s1.9 2.9 1.9 4.7H149c0-1.1-.4-2.2-1.2-3s-1.8-1.2-3-1.2c-2.3 0-4.2 1.9-4.2 4.2"/><path fill="#FCB73B" d="M144.8 749.5c-2.3 0-4.2 1.9-4.2 4.2s1.9 4.2 4.2 4.2 4.2-1.9 4.2-4.2-1.9-4.2-4.2-4.2m0 10.9c-3.7 0-6.7-3-6.7-6.7s3-6.7 6.7-6.7 6.7 3 6.7 6.7-3 6.7-6.7 6.7M303.2 764.5h-2.5c0-3.7 3-6.7 6.7-6.7 1.8 0 3.4.7 4.7 2 1.3 1.3 1.9 2.9 1.9 4.7h-2.5c0-1.1-.4-2.2-1.2-3-.8-.8-1.8-1.2-3-1.2-2.2 0-4.1 1.9-4.1 4.2"/><path fill="#FCB73B" d="M307.4 749.5c-2.3 0-4.2 1.9-4.2 4.2s1.9 4.2 4.2 4.2c2.3 0 4.2-1.9 4.2-4.2s-1.9-4.2-4.2-4.2m0 10.9c-3.7 0-6.7-3-6.7-6.7s3-6.7 6.7-6.7 6.7 3 6.7 6.7-3 6.7-6.7 6.7M340.1 764.5h-2.5c0-3.7 3-6.7 6.7-6.7 1.8 0 3.4.7 4.7 2 1.3 1.3 1.9 2.9 1.9 4.7h-2.5c0-1.1-.4-2.2-1.2-3-.8-.8-1.8-1.2-3-1.2-2.2 0-4.1 1.9-4.1 4.2"/><path fill="#FCB73B" d="M344.3 749.5c-2.3 0-4.2 1.9-4.2 4.2s1.9 4.2 4.2 4.2c2.3 0 4.2-1.9 4.2-4.2s-1.9-4.2-4.2-4.2m0 10.9c-3.7 0-6.7-3-6.7-6.7s3-6.7 6.7-6.7 6.7 3 6.7 6.7-3 6.7-6.7 6.7M108.6 764.5h-2.5c0-3.7 3-6.7 6.7-6.7 1.8 0 3.4.7 4.7 2 1.3 1.3 1.9 2.9 1.9 4.7H117c0-1.1-.4-2.2-1.2-3-.8-.8-1.8-1.2-3-1.2-2.3 0-4.2 1.9-4.2 4.2"/><path fill="#FCB73B" d="M112.8 749.5c-2.3 0-4.2 1.9-4.2 4.2s1.9 4.2 4.2 4.2c2.3 0 4.2-1.9 4.2-4.2s-1.9-4.2-4.2-4.2m0 10.9c-3.7 0-6.7-3-6.7-6.7s3-6.7 6.7-6.7 6.7 3 6.7 6.7-3 6.7-6.7 6.7M169.3 805.4h-2.5c0-3.7 3-6.7 6.7-6.7 1.8 0 3.4.7 4.7 2s1.9 2.9 1.9 4.7h-2.5c0-1.1-.4-2.2-1.2-3s-1.8-1.2-3-1.2c-2.2 0-4.1 1.9-4.1 4.2"/><path fill="#FCB73B" d="M173.5 790.4c-2.3 0-4.2 1.9-4.2 4.2s1.9 4.2 4.2 4.2 4.2-1.9 4.2-4.2c0-2.3-1.9-4.2-4.2-4.2m0 10.9c-3.7 0-6.7-3-6.7-6.7s3-6.7 6.7-6.7 6.7 3 6.7 6.7-3.1 6.7-6.7 6.7M203.1 764.5h-2.5c0-3.7 3-6.7 6.7-6.7 1.8 0 3.4.7 4.7 2s1.9 2.9 1.9 4.7h-2.5c0-1.1-.4-2.2-1.2-3s-1.8-1.2-3-1.2c-2.2 0-4.1 1.9-4.1 4.2"/><path fill="#FCB73B" d="M207.3 749.5c-2.3 0-4.2 1.9-4.2 4.2s1.9 4.2 4.2 4.2 4.2-1.9 4.2-4.2-1.9-4.2-4.2-4.2m0 10.9c-3.7 0-6.7-3-6.7-6.7s3-6.7 6.7-6.7 6.7 3 6.7 6.7-3.1 6.7-6.7 6.7M236 764.5h-2.5c0-3.7 3-6.7 6.7-6.7 1.8 0 3.4.7 4.7 2s1.9 2.9 1.9 4.7h-2.5c0-1.1-.4-2.2-1.2-3s-1.8-1.2-3-1.2c-2.2 0-4.1 1.9-4.1 4.2"/><path fill="#FCB73B" d="M240.2 749.5c-2.3 0-4.2 1.9-4.2 4.2s1.9 4.2 4.2 4.2 4.2-1.9 4.2-4.2-1.9-4.2-4.2-4.2m0 10.9c-3.7 0-6.7-3-6.7-6.7s3-6.7 6.7-6.7 6.7 3 6.7 6.7-3 6.7-6.7 6.7M236 805.4h-2.5c0-3.7 3-6.7 6.7-6.7 1.8 0 3.4.7 4.7 2s1.9 2.9 1.9 4.7h-2.5c0-1.1-.4-2.2-1.2-3s-1.8-1.2-3-1.2c-2.2 0-4.1 1.9-4.1 4.2"/><path fill="#FCB73B" d="M240.2 790.4c-2.3 0-4.2 1.9-4.2 4.2s1.9 4.2 4.2 4.2 4.2-1.9 4.2-4.2c0-2.3-1.9-4.2-4.2-4.2m0 10.9c-3.7 0-6.7-3-6.7-6.7s3-6.7 6.7-6.7 6.7 3 6.7 6.7-3 6.7-6.7 6.7M265.4 764.5h-2.5c0-3.7 3-6.7 6.7-6.7 1.8 0 3.4.7 4.7 2 1.3 1.3 1.9 2.9 1.9 4.7h-2.5c0-1.1-.4-2.2-1.2-3-.8-.8-1.8-1.2-3-1.2-2.3 0-4.1 1.9-4.1 4.2"/><path fill="#FCB73B" d="M269.6 749.5c-2.3 0-4.2 1.9-4.2 4.2s1.9 4.2 4.2 4.2c2.3 0 4.2-1.9 4.2-4.2-.1-2.3-1.9-4.2-4.2-4.2m0 10.9c-3.7 0-6.7-3-6.7-6.7s3-6.7 6.7-6.7 6.7 3 6.7 6.7-3.1 6.7-6.7 6.7M236 717.4h-2.5c0-3.7 3-6.7 6.7-6.7 1.8 0 3.4.7 4.7 2s1.9 2.9 1.9 4.7h-2.5c0-1.1-.4-2.2-1.2-3s-1.8-1.2-3-1.2c-2.2 0-4.1 1.9-4.1 4.2"/><path fill="#FCB73B" d="M240.2 702.4c-2.3 0-4.2 1.9-4.2 4.2s1.9 4.2 4.2 4.2 4.2-1.9 4.2-4.2c0-2.3-1.9-4.2-4.2-4.2m0 10.8c-3.7 0-6.7-3-6.7-6.7s3-6.7 6.7-6.7 6.7 3 6.7 6.7-3 6.7-6.7 6.7M172 717.4h-2.5c0-3.7 3-6.7 6.7-6.7 1.8 0 3.4.7 4.7 2s1.9 2.9 1.9 4.7h-2.5c0-1.1-.4-2.2-1.2-3s-1.8-1.2-3-1.2c-2.2 0-4.1 1.9-4.1 4.2"/><path fill="#FCB73B" d="M176.2 702.4c-2.3 0-4.2 1.9-4.2 4.2s1.9 4.2 4.2 4.2 4.2-1.9 4.2-4.2c0-2.3-1.9-4.2-4.2-4.2m0 10.8c-3.7 0-6.7-3-6.7-6.7s3-6.7 6.7-6.7 6.7 3 6.7 6.7-3 6.7-6.7 6.7"/><path fill="none" stroke="#FCB73B" stroke-miterlimit="10" d="M187.4 708.6h41.7M123.8 755.8h9.9M281.4 755.8h14.9M318.2 755.8h15M156.2 755.8h40.1M184.8 796.8h44.3M217.2 755.8h11.9M249.7 755.8h10M240.2 769.9v14.4M240.2 724.2v16.9M182.9 787.9l16-17.4M251.6 787.9l16.1-17.4M153.4 743.9l16.1-19.6"/><g><path fill="#FCB73B" d="M270.1 929.7h-2.5v-4.4h-9.1v4.4H256v-6.9h14.1M270.1 920.5H256v-7.3h2.5v4.8h9.1v-4.8h2.5M343.3 988.9h-2.5v-4.4h-9.1v4.4h-2.5V982h14.1M343.3 979.7h-14.1v-7.3h2.5v4.8h9.1v-4.8h2.5M457.9 929.7h-2.5v-4.4h-9.1v4.4h-2.5v-6.9h14.1M457.9 920.5h-14.1v-7.3h2.5v4.8h9.1v-4.8h2.5M245.6 929.7h-2.5v-4.4H234v4.4h-2.5v-6.9h14.1M245.6 920.5h-14.1v-7.3h2.5v4.8h9.1v-4.8h2.5M245.6 988.7h-2.5v-4.4H234v4.4h-2.5v-6.9h14.1M245.6 979.5h-14.1v-7.3h2.5v4.8h9.1v-4.8h2.5M293.8 929.7h-2.5v-4.4h-9v4.4h-2.5v-6.9h14M293.8 920.5h-14v-7.3h2.5v4.8h9v-4.8h2.5M403.6 929.7h-2.5v-4.4H392v4.4h-2.5v-6.9h14.1M403.6 920.5h-14.1v-7.3h2.5v4.8h9.1v-4.8h2.5M367.5 988.9H365v-4.4h-9.1v4.4h-2.5V982h14.1M367.5 979.7h-14.1v-7.3h2.5v4.8h9.1v-4.8h2.5M367.5 1011.4H365v-4.4h-9.1v4.4h-2.5v-6.9h14.1M367.5 1002.2h-14.1v-7.3h2.5v4.8h9.1v-4.8h2.5M477.2 929.7h-2.5v-4.4h-9v4.4h-2.5v-6.9h14M477.2 920.5h-14v-7.3h2.5v4.8h9v-4.8h2.5M477.2 907.7h-2.5v-4.3h-9v4.3h-2.5v-6.8h14M477.2 898.5h-14v-7.2h2.5v4.8h9v-4.8h2.5M270.1 884.8h-2.5v-4.4h-9.1v4.4H256v-6.9h14.1M270.1 875.6H256v-7.3h2.5v4.8h9.1v-4.8h2.5M319.1 884.8h-2.5v-4.4h-9.1v4.4H305v-6.9h14.1M319.1 875.6H305v-7.3h2.5v4.8h9.1v-4.8h2.5M343.3 907.4h-2.5V903h-9.1v4.4h-2.5v-6.9h14.1M343.3 898.2h-14.1v-7.3h2.5v4.8h9.1v-4.8h2.5M367.5 884.8H365v-4.4h-9.1v4.4h-2.5v-6.9h14.1M367.5 875.6h-14.1v-7.3h2.5v4.8h9.1v-4.8h2.5M367.5 907.4H365V903h-9.1v4.4h-2.5v-6.9h14.1M367.5 898.2h-14.1v-7.3h2.5v4.8h9.1v-4.8h2.5M293.8 952.2h-2.5v-4.3h-9v4.3h-2.5v-6.8h14M293.8 943h-14v-7.2h2.5v4.7h9v-4.7h2.5M403.6 952.2h-2.5v-4.3H392v4.3h-2.5v-6.8h14.1M403.6 943h-14.1v-7.2h2.5v4.7h9.1v-4.7h2.5M367.5 1033.9H365v-4.4h-9.1v4.4h-2.5v-6.9h14.1M367.5 1024.7h-14.1v-7.2h2.5v4.7h9.1v-4.7h2.5M477.2 1033.9h-2.5v-4.4h-9v4.4h-2.5v-6.9h14M477.2 1024.7h-14v-7.2h2.5v4.7h9v-4.7h2.5M477.2 952.2h-2.5v-4.3h-9v4.3h-2.5v-6.8h14M477.2 943h-14v-7.2h2.5v4.7h9v-4.7h2.5M270.1 952.1h-2.5v-4.4h-9.1v4.4H256v-6.9h14.1M270.1 942.9H256v-7.3h2.5v4.8h9.1v-4.8h2.5"/><path fill="none" stroke="#FCB73B" stroke-width=".294" stroke-miterlimit="10" d="M324.9 876.5h20.8M276.4 876.5h20.8M301.5 921.6h77.9M301.5 944h77.9M373.2 1025.9H453M413.9 944h42.3M413.9 922h21.8M374.8 899.3h76.1M470.2 958.8v52.6M252.9 980.6h66.2M238.6 935.6v31.2M263.2 888.6v19.7"/></g><g><path fill="#FCB73B" d="M638 710.2h5.6v-5.7h2.5v8.2H638M646.1 720.9v-8.2h8.1v2.5h-5.6v5.7M638 745.6h5.6V740h2.5v8.1H638M646.1 756.3v-8.1h8.1v2.5h-5.6v5.6M638 797.1h5.6v-5.6h2.5v8.2H638M646.1 807.8v-8.1h8.1v2.5h-5.6v5.6M708.8 836.7h5.6v-5.6h2.4v8.1h-8M716.9 847.4v-8.2h8.1v2.5h-5.6v5.7M638 838.4h5.6v-5.6h2.5v8.1H638M646.1 849.1V841h8.1v2.5h-5.6v5.6M681.4 745.6h5.6V740h2.5v8.1h-8.1M689.6 756.3v-8.1h8v2.5H692v5.6M581.8 745.6h5.6V740h2.5v8.1h-8.1M590 756.3v-8.1h8l.1 2.5h-5.6v5.6M546.8 780.8h5.6v-5.6h2.5v8.1h-8.1M554.9 791.5v-8.2h8.1v2.5h-5.6v5.7M546.8 710.2h5.6v-5.7h2.5v8.2h-8.1M554.9 720.9v-8.2h8.1v2.5h-5.6v5.7M546.8 838.4h5.6v-5.6h2.5v8.1h-8.1M554.9 849.1V841h8.1v2.5h-5.6v5.6"/><path fill="none" stroke="#FCB73B" stroke-width=".235" stroke-miterlimit="10" d="M628.1 840.7h-56.2M632.9 748.2h-29.4M674.8 748.2h-15.6M701.7 840.7h-40.5M646.1 815.3v12M646.1 762.4v22.7M646.1 726.2v7.4M554.9 726.2v40M581.8 756l-20.2 20.4M652 794.3l32.5-32.6M554.9 799.9V825M563 832.8l73.3-73.6"/><path fill="#FCB73B" d="M506.2 780.8h5.6v-5.6h2.5v8.1h-8.1M514.4 791.5v-8.2h8v2.5h-5.5v5.7"/><path fill="none" stroke="#FCB73B" stroke-width=".235" stroke-miterlimit="10" d="M526.7 783.3h14.5"/></g><g><path fill="#FCB73B" d="M873.9 1017.7l-13.9-13.9 2-2 13.8 14"/><path fill="#FCB73B" d="M862 1017.7l-2-1.9 13.9-14 1.9 2M848 935.6l-13.9-13.9 1.9-2 13.9 14"/><path fill="#FCB73B" d="M836 935.6l-1.9-1.9 13.9-14 1.9 2M725.3 935.6l-13.8-13.9 1.9-2 13.9 14"/><path fill="#FCB73B" d="M713.4 935.6l-1.9-1.9 13.8-14 2 2M889.7 935.6l-13.9-13.9 2-2 13.9 14"/><path fill="#FCB73B" d="M877.8 935.6l-2-1.9 13.9-14 2 2M889.7 985.7l-13.9-14 2-1.9 13.9 13.9"/><path fill="#FCB73B" d="M877.8 985.7l-2-2 13.9-13.9 2 1.9M798.8 985.7l-13.9-14 1.9-1.9 13.9 13.9"/><path fill="#FCB73B" d="M786.8 985.7l-1.9-2 13.9-13.9 1.9 1.9M774.3 985.7l-13.9-14 2-1.9 13.8 13.9"/><path fill="#FCB73B" d="M762.4 985.7l-2-2 13.9-13.9 1.9 1.9M753 1049.8l-13.9-13.9 2-2 13.9 14"/><path fill="#FCB73B" d="M741.1 1049.8l-2-1.9 13.9-14 2 2M668.8 985.7l-13.9-14 2-1.9 13.9 13.9"/><path fill="#FCB73B" d="M656.9 985.7l-2-2 13.9-13.9 2 1.9M668.8 1049.8l-13.9-13.9 2-2 13.9 14"/><path fill="#FCB73B" d="M656.9 1049.8l-2-1.9 13.9-14 2 2M798.8 1017.7l-13.9-13.9 1.9-2 13.9 14"/><path fill="#FCB73B" d="M786.8 1017.7l-1.9-1.9 13.9-14 1.9 2M668.8 1017.7l-13.9-13.9 2-2 13.9 14"/><path fill="#FCB73B" d="M656.9 1017.7l-2-1.9 13.9-14 2 2M798.8 1049.8l-13.9-13.9 1.9-2 13.9 14"/><path fill="#FCB73B" d="M786.8 1049.8l-1.9-1.9 13.9-14 1.9 2M798.8 1092.9l-13.9-14 1.9-1.9 13.9 13.9"/><path fill="#FCB73B" d="M786.8 1092.9l-1.9-2 13.9-13.9 1.9 1.9"/><path fill="none" stroke="#FCB73B" stroke-width=".335" stroke-miterlimit="10" d="M683.5 977.5h69.2M733.7 927.5h97M805 977.5h64.2M805 1010h51.3M683.5 1009.6H778M683.5 1041.9h50.2M805.2 1072.9l50.9-51.1M792.8 1054.6v15.9M729.7 939.6l26.5 26.6M708.6 939.1l-27.2 27.2M830.5 939.1l-27.2 27.2M852 927.5h22.1M883.8 935.6v30.7M762 1056.2l15.9 14.4M760.4 1041.9h20.1"/></g><g><path fill="#FCB73B" d="M191.2 1128.1h5.6v-5.6h2.5v8.1h-8.1M199.3 1138.8v-8.2h8.1v2.5h-5.6v5.7M191.2 1163.6h5.6v-5.7h2.5v8.2h-8.1M199.3 1174.3v-8.2h8.1v2.5h-5.6v5.7M191.2 1215.1h5.6v-5.7h2.5v8.2h-8.1M199.3 1225.8v-8.2h8.1v2.5h-5.6v5.7M262 1254.6h5.6v-5.6h2.5v8.1H262M270.1 1265.3v-8.1h8.1v2.5h-5.6v5.6M191.2 1256.4h5.6v-5.7h2.5v8.2h-8.1M199.3 1267.1v-8.2h8.1v2.5h-5.6v5.7M234.7 1163.6h5.6v-5.7h2.4v8.2h-8M242.8 1174.3v-8.2h8.1v2.5h-5.6v5.7M135.1 1163.6h5.6v-5.7h2.5v8.2h-8.1M143.2 1174.3v-8.2h8.1v2.5h-5.6v5.7M100 1198.8h5.6v-5.7h2.5v8.2H100M108.1 1209.4v-8.1h8.1v2.5h-5.6v5.6M100 1128.1h5.6v-5.6h2.5v8.1H100M108.1 1138.8v-8.2h8.1v2.5h-5.6v5.7M100 1256.4h5.6v-5.7h2.5v8.2H100M108.1 1267.1v-8.2h8.1v2.5h-5.6v5.7"/><path fill="none" stroke="#FCB73B" stroke-width=".235" stroke-miterlimit="10" d="M181.3 1258.6h-56.2M186.2 1166.1h-29.5M228 1166.1h-15.5M254.9 1258.6h-40.5M199.3 1233.3v11.9M199.3 1180.4v22.7M199.3 1144.1v7.4M108.1 1144.1v40.1M135.1 1174l-20.3 20.3M205.2 1212.3l32.5-32.6M108.1 1217.8v25.2M116.2 1250.7l73.3-73.5"/><path fill="#FCB73B" d="M59.5 1198.8h5.6v-5.7h2.4v8.2h-8M67.6 1209.4v-8.1h8.1v2.5h-5.6v5.6"/><path fill="none" stroke="#FCB73B" stroke-width=".235" stroke-miterlimit="10" d="M79.9 1201.3h14.5"/></g><g><path fill="#FCB73B" d="M929.1 794.7h-2.5c0-3.7 3-6.7 6.7-6.7 1.8 0 3.4.7 4.7 2s1.9 2.9 1.9 4.7h-2.5c0-1.1-.4-2.2-1.2-3s-1.8-1.2-3-1.2c-2.2 0-4.1 1.8-4.1 4.2"/><path fill="#FCB73B" d="M933.3 779.6c-2.3 0-4.2 1.9-4.2 4.2s1.9 4.2 4.2 4.2 4.2-1.9 4.2-4.2-1.9-4.2-4.2-4.2m0 10.9c-3.7 0-6.7-3-6.7-6.7s3-6.7 6.7-6.7 6.7 3 6.7 6.7-3 6.7-6.7 6.7M897.1 794.7h-2.5c0-3.7 3-6.7 6.7-6.7 1.8 0 3.4.7 4.7 2s1.9 2.9 1.9 4.7h-2.5c0-1.1-.4-2.2-1.2-3s-1.8-1.2-3-1.2c-2.2 0-4.1 1.8-4.1 4.2"/><path fill="#FCB73B" d="M901.3 779.6c-2.3 0-4.2 1.9-4.2 4.2s1.9 4.2 4.2 4.2 4.2-1.9 4.2-4.2-1.9-4.2-4.2-4.2m0 10.9c-3.7 0-6.7-3-6.7-6.7s3-6.7 6.7-6.7 6.7 3 6.7 6.7-3 6.7-6.7 6.7M957.8 835.5h-2.5c0-3.7 3-6.7 6.7-6.7 1.8 0 3.4.7 4.7 2s1.9 2.9 1.9 4.7h-2.5c0-1.1-.4-2.2-1.2-3s-1.8-1.2-3-1.2c-2.3 0-4.1 1.9-4.1 4.2"/><path fill="#FCB73B" d="M962 820.5c-2.3 0-4.2 1.9-4.2 4.2s1.9 4.2 4.2 4.2 4.2-1.9 4.2-4.2c-.1-2.3-1.9-4.2-4.2-4.2m0 10.9c-3.7 0-6.7-3-6.7-6.7s3-6.7 6.7-6.7 6.7 3 6.7 6.7-3.1 6.7-6.7 6.7M991.6 794.7h-2.5c0-3.7 3-6.7 6.7-6.7 1.8 0 3.4.7 4.7 2s1.9 2.9 1.9 4.7h-2.5c0-1.1-.4-2.2-1.2-3s-1.8-1.2-3-1.2c-2.3 0-4.1 1.8-4.1 4.2"/><path fill="#FCB73B" d="M995.8 779.6c-2.3 0-4.2 1.9-4.2 4.2s1.9 4.2 4.2 4.2 4.2-1.9 4.2-4.2c-.1-2.3-1.9-4.2-4.2-4.2m0 10.9c-3.7 0-6.7-3-6.7-6.7s3-6.7 6.7-6.7 6.7 3 6.7 6.7-3.1 6.7-6.7 6.7M1024.5 794.7h-2.5c0-3.7 3-6.7 6.7-6.7 1.8 0 3.4.7 4.7 2 1.3 1.3 1.9 2.9 1.9 4.7h-2.5c0-1.1-.4-2.2-1.2-3-.8-.8-1.8-1.2-3-1.2-2.2 0-4.1 1.8-4.1 4.2"/><path fill="#FCB73B" d="M1028.7 779.6c-2.3 0-4.2 1.9-4.2 4.2s1.9 4.2 4.2 4.2c2.3 0 4.2-1.9 4.2-4.2 0-2.3-1.9-4.2-4.2-4.2m0 10.9c-3.7 0-6.7-3-6.7-6.7s3-6.7 6.7-6.7 6.7 3 6.7 6.7-3 6.7-6.7 6.7M1024.5 835.5h-2.5c0-3.7 3-6.7 6.7-6.7 1.8 0 3.4.7 4.7 2s1.9 2.9 1.9 4.7h-2.5c0-1.1-.4-2.2-1.2-3-.8-.8-1.8-1.2-3-1.2-2.2 0-4.1 1.9-4.1 4.2"/><path fill="#FCB73B" d="M1028.7 820.5c-2.3 0-4.2 1.9-4.2 4.2s1.9 4.2 4.2 4.2c2.3 0 4.2-1.9 4.2-4.2 0-2.3-1.9-4.2-4.2-4.2m0 10.9c-3.7 0-6.7-3-6.7-6.7s3-6.7 6.7-6.7 6.7 3 6.7 6.7-3 6.7-6.7 6.7M1053.8 794.7h-2.5c0-3.7 3-6.7 6.7-6.7 1.8 0 3.4.7 4.7 2 1.3 1.3 1.9 2.9 1.9 4.7h-2.5c0-1.1-.4-2.2-1.2-3-.8-.8-1.8-1.2-3-1.2-2.2 0-4.1 1.8-4.1 4.2"/><path fill="#FCB73B" d="M1058 779.6c-2.3 0-4.2 1.9-4.2 4.2s1.9 4.2 4.2 4.2c2.3 0 4.2-1.9 4.2-4.2s-1.9-4.2-4.2-4.2m0 10.9c-3.7 0-6.7-3-6.7-6.7s3-6.7 6.7-6.7 6.7 3 6.7 6.7-3 6.7-6.7 6.7M1024.5 747.5h-2.5c0-3.7 3-6.7 6.7-6.7 1.8 0 3.4.7 4.7 2 1.3 1.3 1.9 2.9 1.9 4.7h-2.5c0-1.1-.4-2.2-1.2-3-.8-.8-1.8-1.2-3-1.2-2.2 0-4.1 1.9-4.1 4.2"/><path fill="#FCB73B" d="M1028.7 732.5c-2.3 0-4.2 1.9-4.2 4.2s1.9 4.2 4.2 4.2c2.3 0 4.2-1.9 4.2-4.2 0-2.3-1.9-4.2-4.2-4.2m0 10.9c-3.7 0-6.7-3-6.7-6.7s3-6.7 6.7-6.7 6.7 3 6.7 6.7-3 6.7-6.7 6.7M960.5 747.5H958c0-3.7 3-6.7 6.7-6.7 1.8 0 3.4.7 4.7 2s1.9 2.9 1.9 4.7h-2.5c0-1.1-.4-2.2-1.2-3s-1.8-1.2-3-1.2c-2.2 0-4.1 1.9-4.1 4.2"/><path fill="#FCB73B" d="M964.7 732.5c-2.3 0-4.2 1.9-4.2 4.2s1.9 4.2 4.2 4.2 4.2-1.9 4.2-4.2-1.9-4.2-4.2-4.2m0 10.9c-3.7 0-6.7-3-6.7-6.7s3-6.7 6.7-6.7 6.7 3 6.7 6.7-3 6.7-6.7 6.7"/><path fill="none" stroke="#FCB73B" stroke-miterlimit="10" d="M975.8 738.8h41.8M912.3 785.9h9.9M1069.8 785.9h15M944.7 785.9h40M973.3 826.9h44.3M1005.7 785.9h11.9M1038.2 785.9h10M1028.7 800v14.4M1028.7 754.3v16.9M971.3 818l16.1-17.4M1040.1 818l16.1-17.4M941.9 774l16-19.6"/></g><g><path fill="#FCB73B" d="M447.1 1185.5h-2.5c0-3.7 3-6.7 6.7-6.7 1.8 0 3.4.7 4.7 2 1.3 1.3 1.9 2.9 1.9 4.7h-2.5c0-1.1-.4-2.2-1.2-3-.8-.8-1.8-1.2-3-1.2-2.3 0-4.1 1.9-4.1 4.2"/><path fill="#FCB73B" d="M451.2 1170.5c-2.3 0-4.2 1.9-4.2 4.2 0 2.3 1.9 4.2 4.2 4.2 2.3 0 4.2-1.9 4.2-4.2 0-2.3-1.9-4.2-4.2-4.2m0 10.9c-3.7 0-6.7-3-6.7-6.7s3-6.7 6.7-6.7 6.7 3 6.7 6.7-3 6.7-6.7 6.7M609.7 1185.5h-2.5c0-3.7 3-6.7 6.7-6.7 1.8 0 3.4.7 4.7 2s1.9 2.9 1.9 4.7H618c0-1.1-.4-2.2-1.2-3s-1.8-1.2-3-1.2c-2.2 0-4.1 1.9-4.1 4.2"/><path fill="#FCB73B" d="M613.9 1170.5c-2.3 0-4.2 1.9-4.2 4.2 0 2.3 1.9 4.2 4.2 4.2s4.2-1.9 4.2-4.2c-.1-2.3-1.9-4.2-4.2-4.2m0 10.9c-3.7 0-6.7-3-6.7-6.7s3-6.7 6.7-6.7 6.7 3 6.7 6.7c-.1 3.7-3.1 6.7-6.7 6.7M646.5 1185.5H644c0-3.7 3-6.7 6.7-6.7 1.8 0 3.4.7 4.7 2s1.9 2.9 1.9 4.7h-2.5c0-1.1-.4-2.2-1.2-3s-1.8-1.2-3-1.2c-2.2 0-4.1 1.9-4.1 4.2"/><path fill="#FCB73B" d="M650.7 1170.5c-2.3 0-4.2 1.9-4.2 4.2 0 2.3 1.9 4.2 4.2 4.2s4.2-1.9 4.2-4.2-1.9-4.2-4.2-4.2m0 10.9c-3.7 0-6.7-3-6.7-6.7s3-6.7 6.7-6.7 6.7 3 6.7 6.7-3 6.7-6.7 6.7M415.1 1185.5h-2.5c0-3.7 3-6.7 6.7-6.7 1.8 0 3.4.7 4.7 2 1.3 1.3 1.9 2.9 1.9 4.7h-2.5c0-1.1-.4-2.2-1.2-3-.8-.8-1.8-1.2-3-1.2-2.3 0-4.1 1.9-4.1 4.2"/><path fill="#FCB73B" d="M419.2 1170.5c-2.3 0-4.2 1.9-4.2 4.2 0 2.3 1.9 4.2 4.2 4.2 2.3 0 4.2-1.9 4.2-4.2 0-2.3-1.8-4.2-4.2-4.2m0 10.9c-3.7 0-6.7-3-6.7-6.7s3-6.7 6.7-6.7 6.7 3 6.7 6.7-3 6.7-6.7 6.7M475.7 1226.4h-2.5c0-3.7 3-6.7 6.7-6.7 1.8 0 3.4.7 4.7 2 1.3 1.3 1.9 2.9 1.9 4.7H484c0-1.1-.4-2.2-1.2-3-.8-.8-1.8-1.2-3-1.2-2.2 0-4.1 1.9-4.1 4.2"/><path fill="#FCB73B" d="M479.9 1211.4c-2.3 0-4.2 1.9-4.2 4.2 0 2.3 1.9 4.2 4.2 4.2 2.3 0 4.2-1.9 4.2-4.2 0-2.4-1.9-4.2-4.2-4.2m0 10.8c-3.7 0-6.7-3-6.7-6.7s3-6.7 6.7-6.7 6.7 3 6.7 6.7-3 6.7-6.7 6.7M509.5 1185.5H507c0-3.7 3-6.7 6.7-6.7 1.8 0 3.4.7 4.7 2s1.9 2.9 1.9 4.7h-2.5c0-1.1-.4-2.2-1.2-3s-1.8-1.2-3-1.2c-2.2 0-4.1 1.9-4.1 4.2"/><path fill="#FCB73B" d="M513.7 1170.5c-2.3 0-4.2 1.9-4.2 4.2 0 2.3 1.9 4.2 4.2 4.2 2.3 0 4.2-1.9 4.2-4.2s-1.9-4.2-4.2-4.2m0 10.9c-3.7 0-6.7-3-6.7-6.7s3-6.7 6.7-6.7 6.7 3 6.7 6.7-3 6.7-6.7 6.7M542.5 1185.5H540c0-3.7 3-6.7 6.7-6.7 1.8 0 3.4.7 4.7 2s1.9 2.9 1.9 4.7h-2.5c0-1.1-.4-2.2-1.2-3s-1.8-1.2-3-1.2c-2.2 0-4.1 1.9-4.1 4.2"/><path fill="#FCB73B" d="M546.7 1170.5c-2.3 0-4.2 1.9-4.2 4.2 0 2.3 1.9 4.2 4.2 4.2s4.2-1.9 4.2-4.2c-.1-2.3-1.9-4.2-4.2-4.2m0 10.9c-3.7 0-6.7-3-6.7-6.7s3-6.7 6.7-6.7 6.7 3 6.7 6.7c-.1 3.7-3.1 6.7-6.7 6.7M542.5 1226.4H540c0-3.7 3-6.7 6.7-6.7 1.8 0 3.4.7 4.7 2s1.9 2.9 1.9 4.7h-2.5c0-1.1-.4-2.2-1.2-3s-1.8-1.2-3-1.2c-2.2 0-4.1 1.9-4.1 4.2"/><path fill="#FCB73B" d="M546.7 1211.4c-2.3 0-4.2 1.9-4.2 4.2 0 2.3 1.9 4.2 4.2 4.2s4.2-1.9 4.2-4.2c-.1-2.4-1.9-4.2-4.2-4.2m0 10.8c-3.7 0-6.7-3-6.7-6.7s3-6.7 6.7-6.7 6.7 3 6.7 6.7c-.1 3.7-3.1 6.7-6.7 6.7M571.8 1185.5h-2.5c0-3.7 3-6.7 6.7-6.7 1.8 0 3.4.7 4.7 2s1.9 2.9 1.9 4.7h-2.5c0-1.1-.4-2.2-1.2-3s-1.8-1.2-3-1.2c-2.2 0-4.1 1.9-4.1 4.2"/><path fill="#FCB73B" d="M576 1170.5c-2.3 0-4.2 1.9-4.2 4.2 0 2.3 1.9 4.2 4.2 4.2s4.2-1.9 4.2-4.2-1.9-4.2-4.2-4.2m0 10.9c-3.7 0-6.7-3-6.7-6.7s3-6.7 6.7-6.7 6.7 3 6.7 6.7c-.1 3.7-3.1 6.7-6.7 6.7M542.5 1138.4H540c0-3.7 3-6.7 6.7-6.7 1.8 0 3.4.7 4.7 2s1.9 2.9 1.9 4.7h-2.5c0-1.1-.4-2.2-1.2-3s-1.8-1.2-3-1.2c-2.2 0-4.1 1.8-4.1 4.2"/><path fill="#FCB73B" d="M546.7 1123.3c-2.3 0-4.2 1.9-4.2 4.2 0 2.3 1.9 4.2 4.2 4.2s4.2-1.9 4.2-4.2c-.1-2.3-1.9-4.2-4.2-4.2m0 10.9c-3.7 0-6.7-3-6.7-6.7s3-6.7 6.7-6.7 6.7 3 6.7 6.7c-.1 3.7-3.1 6.7-6.7 6.7M478.5 1138.4H476c0-3.7 3-6.7 6.7-6.7 1.8 0 3.4.7 4.7 2 1.3 1.3 1.9 2.9 1.9 4.7h-2.5c0-1.1-.4-2.2-1.2-3-.8-.8-1.8-1.2-3-1.2-2.3 0-4.1 1.8-4.1 4.2"/><path fill="#FCB73B" d="M482.6 1123.3c-2.3 0-4.2 1.9-4.2 4.2 0 2.3 1.9 4.2 4.2 4.2 2.3 0 4.2-1.9 4.2-4.2 0-2.3-1.9-4.2-4.2-4.2m0 10.9c-3.7 0-6.7-3-6.7-6.7s3-6.7 6.7-6.7 6.7 3 6.7 6.7-3 6.7-6.7 6.7"/><path fill="none" stroke="#FCB73B" stroke-miterlimit="10" d="M493.8 1129.6h41.7M430.3 1176.7h9.8M587.8 1176.7h15M624.6 1176.7h15M462.7 1176.7h40M491.2 1217.8h44.3M523.6 1176.7h11.9M556.1 1176.7h10M546.7 1190.8v14.5M546.7 1145.1v16.9M489.3 1208.9l16.1-17.5M558.1 1208.9l16-17.5M459.8 1164.9l16.1-19.7"/></g><g><path fill="#FCB73B" d="M886.1 1175.6h5.6v-5.7h2.5v8.2h-8.1M894.2 1186.3v-8.2h8.1v2.5h-5.6v5.7M886.1 1211.1h5.6v-5.7h2.5v8.2h-8.1M894.2 1221.8v-8.2h8.1v2.5h-5.6v5.7M886.1 1262.6h5.6v-5.7h2.5v8.2h-8.1M894.2 1273.3v-8.2h8.1v2.5h-5.6v5.7M956.9 1302.1h5.6v-5.6h2.5v8.1h-8.1M965 1312.8v-8.1h8.1v2.5h-5.6v5.6M886.1 1303.9h5.6v-5.7h2.5v8.2h-8.1M894.2 1314.5v-8.1h8.1v2.5h-5.6v5.6M929.6 1211.1h5.6v-5.7h2.4v8.2h-8M937.7 1221.8v-8.2h8.1v2.5h-5.6v5.7M830 1211.1h5.6v-5.7h2.5v8.2H830M838.1 1221.8v-8.2h8.1v2.5h-5.6v5.7M794.9 1246.2h5.6v-5.6h2.5v8.1h-8.1M803 1256.9v-8.1h8.1v2.5h-5.6v5.6M794.9 1175.6h5.6v-5.7h2.5v8.2h-8.1M803 1186.3v-8.2h8.1v2.5h-5.6v5.7M794.9 1303.9h5.6v-5.7h2.5v8.2h-8.1M803 1314.5v-8.1h8.1v2.5h-5.6v5.6"/><path fill="none" stroke="#FCB73B" stroke-width=".235" stroke-miterlimit="10" d="M876.2 1306.1H820M881.1 1213.6h-29.5M922.9 1213.6h-15.5M949.8 1306.1h-40.5M894.2 1280.7v12M894.2 1227.9v22.7M894.2 1191.6v7.4M803 1191.6v40M830 1221.5l-20.3 20.3M900.1 1259.7l32.5-32.6M803 1265.3v25.1M811.1 1298.2l73.3-73.5"/><path fill="#FCB73B" d="M754.4 1246.2h5.6v-5.6h2.5v8.1h-8.1M762.5 1256.9v-8.1h8.1v2.5H765v5.6"/><path fill="none" stroke="#FCB73B" stroke-width=".235" stroke-miterlimit="10" d="M774.8 1248.8h14.5"/></g><g><path fill="#FCB73B" d="M127.3 474.3h5.6v-5.7h2.5v8.2h-8.1M135.4 485v-8.2h8.1v2.5h-5.6v5.7M127.3 509.7h5.6v-5.6h2.5v8.1h-8.1M135.4 520.4v-8.1h8.1v2.5h-5.6v5.6M127.3 561.2h5.6v-5.6h2.5v8.1h-8.1M135.4 571.9v-8.1h8.1v2.5h-5.6v5.6M198.1 600.8h5.6v-5.7h2.4v8.2h-8M206.2 611.5v-8.2h8.1v2.5h-5.6v5.7M127.3 602.5h5.6v-5.6h2.5v8.1h-8.1M135.4 613.2v-8.1h8.1v2.5h-5.6v5.6M170.7 509.7h5.6v-5.6h2.5v8.1h-8.1M178.8 520.4v-8.1h8.1v2.5h-5.6v5.6M71.1 509.7h5.6v-5.6h2.5v8.1h-8.1M79.3 520.4v-8.1h8v2.5h-5.6v5.6M36.1 544.9h5.6v-5.6h2.5v8.1h-8.1M44.2 555.6v-8.2h8.1v2.5h-5.6v5.7M36.1 474.3h5.6v-5.7h2.5v8.2h-8.1M44.2 485v-8.2h8.1v2.5h-5.6v5.7M36.1 602.5h5.6v-5.6h2.5v8.1h-8.1M44.2 613.2v-8.1h8.1v2.5h-5.6v5.6"/><path fill="none" stroke="#FCB73B" stroke-width=".235" stroke-miterlimit="10" d="M117.4 604.8H61.2M122.2 512.3H92.8M164.1 512.3h-15.6M191 604.8h-40.5M135.4 579.4v12M135.4 526.5v22.7M135.4 490.2v7.5M44.2 490.2v40.1M71.1 520.1l-20.2 20.4M141.3 558.4l32.5-32.6M44.2 564v25.1M52.3 596.9l73.3-73.6"/><path fill="#FCB73B" d="M-4.5 544.9h5.6v-5.6h2.5v8.1h-8.1M3.7 555.6v-8.2h8v2.5H6.1v5.7"/><path fill="none" stroke="#FCB73B" stroke-width=".235" stroke-miterlimit="10" d="M16 547.4h14.5"/></g><g><path fill="#FCB73B" d="M383.1 531.7h-2.5c0-3.7 3-6.7 6.7-6.7 1.8 0 3.4.7 4.7 2 1.3 1.3 1.9 2.9 1.9 4.7h-2.5c0-1.1-.4-2.2-1.2-3-.8-.8-1.8-1.2-3-1.2-2.2 0-4.1 1.8-4.1 4.2"/><path fill="#FCB73B" d="M387.3 516.6c-2.3 0-4.2 1.9-4.2 4.2s1.9 4.2 4.2 4.2c2.3 0 4.2-1.9 4.2-4.2s-1.9-4.2-4.2-4.2m0 10.9c-3.7 0-6.7-3-6.7-6.7s3-6.7 6.7-6.7 6.7 3 6.7 6.7-3 6.7-6.7 6.7M545.8 531.7h-2.5c0-3.7 3-6.7 6.7-6.7 1.8 0 3.4.7 4.7 2s1.9 2.9 1.9 4.7h-2.5c0-1.1-.4-2.2-1.2-3s-1.8-1.2-3-1.2c-2.3 0-4.1 1.8-4.1 4.2"/><path fill="#FCB73B" d="M549.9 516.6c-2.3 0-4.2 1.9-4.2 4.2s1.9 4.2 4.2 4.2 4.2-1.9 4.2-4.2c0-2.3-1.9-4.2-4.2-4.2m0 10.9c-3.7 0-6.7-3-6.7-6.7s3-6.7 6.7-6.7 6.7 3 6.7 6.7-3 6.7-6.7 6.7M582.6 531.7h-2.5c0-3.7 3-6.7 6.7-6.7 1.8 0 3.4.7 4.7 2s1.9 2.9 1.9 4.7H591c0-1.1-.4-2.2-1.2-3s-1.8-1.2-3-1.2c-2.3 0-4.2 1.8-4.2 4.2"/><path fill="#FCB73B" d="M586.8 516.6c-2.3 0-4.2 1.9-4.2 4.2s1.9 4.2 4.2 4.2 4.2-1.9 4.2-4.2-1.9-4.2-4.2-4.2m0 10.9c-3.7 0-6.7-3-6.7-6.7s3-6.7 6.7-6.7 6.7 3 6.7 6.7-3 6.7-6.7 6.7M351.1 531.7h-2.5c0-3.7 3-6.7 6.7-6.7 1.8 0 3.4.7 4.7 2 1.3 1.3 1.9 2.9 1.9 4.7h-2.5c0-1.1-.4-2.2-1.2-3-.8-.8-1.8-1.2-3-1.2-2.2 0-4.1 1.8-4.1 4.2"/><path fill="#FCB73B" d="M355.3 516.6c-2.3 0-4.2 1.9-4.2 4.2s1.9 4.2 4.2 4.2c2.3 0 4.2-1.9 4.2-4.2s-1.9-4.2-4.2-4.2m0 10.9c-3.7 0-6.7-3-6.7-6.7s3-6.7 6.7-6.7 6.7 3 6.7 6.7-3 6.7-6.7 6.7M411.8 572.5h-2.5c0-3.7 3-6.7 6.7-6.7 1.8 0 3.4.7 4.7 2 1.3 1.3 1.9 2.9 1.9 4.7h-2.5c0-1.1-.4-2.2-1.2-3-.8-.8-1.8-1.2-3-1.2-2.2 0-4.1 1.9-4.1 4.2"/><path fill="#FCB73B" d="M416 557.5c-2.3 0-4.2 1.9-4.2 4.2s1.9 4.2 4.2 4.2c2.3 0 4.2-1.9 4.2-4.2s-1.9-4.2-4.2-4.2m0 10.9c-3.7 0-6.7-3-6.7-6.7s3-6.7 6.7-6.7 6.7 3 6.7 6.7-3 6.7-6.7 6.7M445.6 531.7h-2.5c0-3.7 3-6.7 6.7-6.7 1.8 0 3.4.7 4.7 2 1.3 1.3 1.9 2.9 1.9 4.7H454c0-1.1-.4-2.2-1.2-3-.8-.8-1.8-1.2-3-1.2-2.3 0-4.2 1.8-4.2 4.2"/><path fill="#FCB73B" d="M449.8 516.6c-2.3 0-4.2 1.9-4.2 4.2s1.9 4.2 4.2 4.2c2.3 0 4.2-1.9 4.2-4.2s-1.9-4.2-4.2-4.2m0 10.9c-3.7 0-6.7-3-6.7-6.7s3-6.7 6.7-6.7 6.7 3 6.7 6.7-3 6.7-6.7 6.7M478.6 531.7h-2.5c0-3.7 3-6.7 6.7-6.7 1.8 0 3.4.7 4.7 2 1.3 1.3 1.9 2.9 1.9 4.7h-2.5c0-1.1-.4-2.2-1.2-3-.8-.8-1.8-1.2-3-1.2-2.3 0-4.1 1.8-4.1 4.2"/><path fill="#FCB73B" d="M482.7 516.6c-2.3 0-4.2 1.9-4.2 4.2s1.9 4.2 4.2 4.2c2.3 0 4.2-1.9 4.2-4.2 0-2.3-1.9-4.2-4.2-4.2m0 10.9c-3.7 0-6.7-3-6.7-6.7s3-6.7 6.7-6.7 6.7 3 6.7 6.7-3 6.7-6.7 6.7M478.6 572.5h-2.5c0-3.7 3-6.7 6.7-6.7 1.8 0 3.4.7 4.7 2 1.3 1.3 1.9 2.9 1.9 4.7h-2.5c0-1.1-.4-2.2-1.2-3-.8-.8-1.8-1.2-3-1.2-2.3 0-4.1 1.9-4.1 4.2"/><path fill="#FCB73B" d="M482.7 557.5c-2.3 0-4.2 1.9-4.2 4.2s1.9 4.2 4.2 4.2c2.3 0 4.2-1.9 4.2-4.2 0-2.3-1.9-4.2-4.2-4.2m0 10.9c-3.7 0-6.7-3-6.7-6.7s3-6.7 6.7-6.7 6.7 3 6.7 6.7-3 6.7-6.7 6.7M507.9 531.7h-2.5c0-3.7 3-6.7 6.7-6.7 1.8 0 3.4.7 4.7 2s1.9 2.9 1.9 4.7h-2.5c0-1.1-.4-2.2-1.2-3s-1.8-1.2-3-1.2c-2.2 0-4.1 1.8-4.1 4.2"/><path fill="#FCB73B" d="M512.1 516.6c-2.3 0-4.2 1.9-4.2 4.2s1.9 4.2 4.2 4.2c2.3 0 4.2-1.9 4.2-4.2-.1-2.3-1.9-4.2-4.2-4.2m0 10.9c-3.7 0-6.7-3-6.7-6.7s3-6.7 6.7-6.7 6.7 3 6.7 6.7-3.1 6.7-6.7 6.7M478.6 484.5h-2.5c0-3.7 3-6.7 6.7-6.7 1.8 0 3.4.7 4.7 2 1.3 1.3 1.9 2.9 1.9 4.7h-2.5c0-1.1-.4-2.2-1.2-3-.8-.8-1.8-1.2-3-1.2-2.3 0-4.1 1.9-4.1 4.2"/><path fill="#FCB73B" d="M482.7 469.5c-2.3 0-4.2 1.9-4.2 4.2 0 2.3 1.9 4.2 4.2 4.2 2.3 0 4.2-1.9 4.2-4.2 0-2.3-1.9-4.2-4.2-4.2m0 10.9c-3.7 0-6.7-3-6.7-6.7s3-6.7 6.7-6.7 6.7 3 6.7 6.7-3 6.7-6.7 6.7M414.5 484.5H412c0-3.7 3-6.7 6.7-6.7 1.8 0 3.4.7 4.7 2 1.3 1.3 1.9 2.9 1.9 4.7h-2.5c0-1.1-.4-2.2-1.2-3-.8-.8-1.8-1.2-3-1.2-2.2 0-4.1 1.9-4.1 4.2"/><path fill="#FCB73B" d="M418.7 469.5c-2.3 0-4.2 1.9-4.2 4.2 0 2.3 1.9 4.2 4.2 4.2 2.3 0 4.2-1.9 4.2-4.2 0-2.3-1.9-4.2-4.2-4.2m0 10.9c-3.7 0-6.7-3-6.7-6.7s3-6.7 6.7-6.7 6.7 3 6.7 6.7-3 6.7-6.7 6.7"/><path fill="none" stroke="#FCB73B" stroke-miterlimit="10" d="M429.9 475.8h41.7M366.4 522.9h9.8M523.9 522.9h14.9M560.7 522.9h15M398.7 522.9h40.1M427.3 563.9h44.3M459.7 522.9h11.9M492.2 522.9h10M482.7 537v14.4M482.7 491.3v16.9M425.4 555l16-17.4M494.2 555l16-17.4M395.9 511l16.1-19.6"/></g><g><path fill="#FCB73B" d="M822.2 521.7h5.6v-5.6h2.5v8.1h-8.1M830.3 532.4v-8.1h8.1v2.5h-5.6v5.6M822.2 557.2h5.6v-5.6h2.5v8.1h-8.1M830.3 567.9v-8.1h8.1v2.5h-5.6v5.6M822.2 608.7h5.6v-5.6h2.5v8.1h-8.1M830.3 619.4v-8.1h8.1v2.5h-5.6v5.6M893 648.3h5.6v-5.7h2.4v8.2h-8M901.1 659v-8.2h8.1v2.5h-5.6v5.7M822.2 650h5.6v-5.6h2.5v8.1h-8.1M830.3 660.7v-8.2h8.1v2.5h-5.6v5.7M865.6 557.2h5.6v-5.6h2.5v8.1h-8.1M873.7 567.9v-8.1h8.1v2.5h-5.6v5.6M766 557.2h5.6v-5.6h2.5v8.1H766M774.2 567.9v-8.1h8v2.5h-5.5v5.6M731 592.4h5.6v-5.7h2.5v8.2H731M739.1 603.1v-8.2h8.1v2.5h-5.6v5.7M731 521.7h5.6v-5.6h2.5v8.1H731M739.1 532.4v-8.1h8.1v2.5h-5.6v5.6M731 650h5.6v-5.6h2.5v8.1H731M739.1 660.7v-8.2h8.1v2.5h-5.6v5.7"/><path fill="none" stroke="#FCB73B" stroke-width=".235" stroke-miterlimit="10" d="M812.3 652.3h-56.2M817.1 559.7h-29.4M859 559.7h-15.6M885.9 652.3h-40.5M830.3 626.9v11.9M830.3 574v22.7M830.3 537.7v7.5M739.1 537.7v40.1M766 567.6l-20.2 20.3M836.2 605.9l32.5-32.6M739.1 611.4v25.2M747.2 644.4l73.3-73.6"/><path fill="#FCB73B" d="M690.4 592.4h5.6v-5.7h2.5v8.2h-8.1M698.6 603.1v-8.2h8v2.5H701v5.7"/><path fill="none" stroke="#FCB73B" stroke-width=".235" stroke-miterlimit="10" d="M710.9 594.9h14.5"/></g><g><path fill="#FCB73B" d="M291.5 1390.8H289v-4.4h-9.1v4.4h-2.5v-6.9h14.1M291.5 1381.6h-14.1v-7.3h2.5v4.8h9.1v-4.8h2.5M364.7 1450h-2.5v-4.4h-9.1v4.4h-2.5v-6.9h14.1M364.7 1440.8h-14.1v-7.3h2.5v4.8h9.1v-4.8h2.5M479.3 1390.8h-2.5v-4.4h-9.1v4.4h-2.5v-6.9h14.1M479.3 1381.6h-14.1v-7.3h2.5v4.8h9.1v-4.8h2.5M267 1390.8h-2.5v-4.4h-9.1v4.4h-2.5v-6.9H267M267 1381.6h-14.1v-7.3h2.5v4.8h9.1v-4.8h2.5M267 1449.8h-2.5v-4.4h-9.1v4.4h-2.5v-6.9H267M267 1440.6h-14.1v-7.3h2.5v4.8h9.1v-4.8h2.5M315.2 1390.8h-2.5v-4.4h-9v4.4h-2.5v-6.9h14M315.2 1381.6h-14v-7.3h2.5v4.8h9v-4.8h2.5M425 1390.8h-2.5v-4.4h-9.1v4.4h-2.5v-6.9H425M425 1381.6h-14.1v-7.3h2.5v4.8h9.1v-4.8h2.5M388.9 1450h-2.5v-4.4h-9.1v4.4h-2.5v-6.9h14.1M388.9 1440.8h-14.1v-7.3h2.5v4.8h9.1v-4.8h2.5M388.9 1472.5h-2.5v-4.4h-9.1v4.4h-2.5v-6.9h14.1M388.9 1463.3h-14.1v-7.3h2.5v4.8h9.1v-4.8h2.5M498.6 1390.8h-2.5v-4.4h-9v4.4h-2.5v-6.9h14M498.6 1381.6h-14v-7.3h2.5v4.8h9v-4.8h2.5M498.6 1368.8h-2.5v-4.4h-9v4.4h-2.5v-6.8h14M498.6 1359.6h-14v-7.2h2.5v4.7h9v-4.7h2.5M291.5 1345.9H289v-4.4h-9.1v4.4h-2.5v-6.9h14.1M291.5 1336.7h-14.1v-7.3h2.5v4.8h9.1v-4.8h2.5M340.5 1345.9H338v-4.4h-9.1v4.4h-2.5v-6.9h14.1M340.5 1336.7h-14.1v-7.3h2.5v4.8h9.1v-4.8h2.5M364.7 1368.5h-2.5v-4.4h-9.1v4.4h-2.5v-6.9h14.1M364.7 1359.3h-14.1v-7.3h2.5v4.8h9.1v-4.8h2.5M388.9 1345.9h-2.5v-4.4h-9.1v4.4h-2.5v-6.9h14.1M388.9 1336.7h-14.1v-7.3h2.5v4.8h9.1v-4.8h2.5M388.9 1368.5h-2.5v-4.4h-9.1v4.4h-2.5v-6.9h14.1M388.9 1359.3h-14.1v-7.3h2.5v4.8h9.1v-4.8h2.5M315.2 1413.3h-2.5v-4.4h-9v4.4h-2.5v-6.9h14M315.2 1404.1h-14v-7.2h2.5v4.7h9v-4.7h2.5M425 1413.3h-2.5v-4.4h-9.1v4.4h-2.5v-6.9H425M425 1404.1h-14.1v-7.2h2.5v4.7h9.1v-4.7h2.5M388.9 1495h-2.5v-4.4h-9.1v4.4h-2.5v-6.9h14.1M388.9 1485.8h-14.1v-7.2h2.5v4.7h9.1v-4.7h2.5M498.6 1495h-2.5v-4.4h-9v4.4h-2.5v-6.9h14M498.6 1485.8h-14v-7.2h2.5v4.7h9v-4.7h2.5M498.6 1413.3h-2.5v-4.4h-9v4.4h-2.5v-6.9h14M498.6 1404.1h-14v-7.2h2.5v4.7h9v-4.7h2.5M291.5 1413.2H289v-4.4h-9.1v4.4h-2.5v-6.9h14.1M291.5 1404h-14.1v-7.3h2.5v4.8h9.1v-4.8h2.5"/><path fill="none" stroke="#FCB73B" stroke-width=".294" stroke-miterlimit="10" d="M346.3 1337.6h20.8M297.8 1337.6h20.8M322.9 1382.7h77.9M322.9 1405.1h77.9M394.6 1487h79.8M435.3 1405.1h42.3M435.3 1383.1h21.8M396.2 1360.4h76.1M491.6 1419.9v52.6M274.3 1441.7h66.2M260 1396.7v31.2M284.6 1349.7v19.7"/></g></g></g></svg>